<?xml version="1.0" encoding="UTF-8"?>
<!DOCTYPE svg PUBLIC "-//W3C//DTD SVG 1.1//EN" "http://www.w3.org/Graphics/SVG/1.1/DTD/svg11.dtd">
<!-- Creator: CorelDRAW 2019 (64-Bit) -->
<svg xmlns="http://www.w3.org/2000/svg" xml:space="preserve" width="450px" height="96px" version="1.1" style="shape-rendering:geometricPrecision; text-rendering:geometricPrecision; image-rendering:optimizeQuality; fill-rule:evenodd; clip-rule:evenodd"
viewBox="0 0 159.85 34.16"
 xmlns:xlink="http://www.w3.org/1999/xlink">
 <defs>
  <style type="text/css">
   <![CDATA[
    .fil0 {fill:#76ABAE}
    .fil1 {fill:#76ABAE;fill-rule:nonzero}
   ]]>
  </style>
 </defs>
 <g id="Capa_x0020_1">
  <metadata id="CorelCorpID_0Corel-Layer"/>
  <g id="_1561256108368">
   <g id="logo-aluraespanhol.svg">
    <g id="LOGO">
     <g id="g23">
      <g id="g9">
       <path id="path7" class="fil0" d="M13.27 0l2.27 0c0.12,0 0.22,0.1 0.22,0.22l0 22.74c0,0.12 -0.1,0.22 -0.22,0.22l-2.27 0c-0.12,0 -0.21,-0.1 -0.21,-0.22l0 -22.75c0,-0.11 0.09,-0.21 0.21,-0.21l0 0zm15.61 18.72l0 0.57c0,0.26 -0.04,0.6 -0.14,1.02 -0.07,0.41 -0.28,0.86 -0.67,1.27 -0.35,0.41 -0.88,0.79 -1.62,1.12 -0.74,0.29 -1.72,0.46 -3.01,0.46 -1.29,0 -2.27,-0.17 -3.01,-0.46 -0.74,-0.28 -1.24,-0.67 -1.62,-1.12 -0.36,-0.41 -0.6,-0.86 -0.67,-1.29 -0.07,-0.43 -0.14,-0.76 -0.14,-1l0 -12.96c0,-0.12 0.09,-0.22 0.21,-0.22l2.27 0c0.12,0 0.22,0.1 0.22,0.22l0 12.12c0,0.41 0.04,0.7 0.12,0.91 0.04,0.24 0.16,0.45 0.33,0.64 0.17,0.22 0.43,0.39 0.79,0.53 0.33,0.14 0.81,0.21 1.41,0.21 0.62,0 1.12,-0.07 1.48,-0.21 0.35,-0.14 0.64,-0.29 0.81,-0.5 0.19,-0.19 0.31,-0.41 0.38,-0.65 0.05,-0.23 0.14,-0.4 0.14,-0.98l0 -12.07c0,-0.12 0.1,-0.22 0.22,-0.22l2.27 0c0.12,0 0.21,0.1 0.21,0.22l0.02 12.39zm7.74 -12.58l1.53 0c0.14,0 0.24,0.14 0.19,0.26l-0.53 1.98c-0.02,0.09 -0.12,0.17 -0.19,0.17l-1.07 0c-0.58,0 -1.03,0.07 -1.39,0.23 -0.33,0.17 -0.64,0.32 -0.81,0.53 -0.17,0.21 -0.28,0.41 -0.36,0.64 -0.04,0.24 -0.07,0.43 -0.07,0.65l0 12.39c0,0.12 -0.09,0.21 -0.21,0.21l-2.29 0c-0.12,0 -0.22,-0.09 -0.22,-0.21l0 -12.96c0,-0.24 0.05,-0.58 0.14,-1.01 0.08,-0.43 0.29,-0.86 0.67,-1.29 0.36,-0.4 0.89,-0.78 1.63,-1.12 0.71,-0.33 1.71,-0.47 2.98,-0.47l0 0zm-31.22 0c1.83,0 3.22,0.35 4.08,1.09 0.86,0.74 1.29,1.65 1.29,2.75l0 9.31c0,0.38 -0.08,0.79 -0.22,1.24 -0.14,0.45 -0.4,0.88 -0.79,1.24 -0.4,0.38 -0.95,0.69 -1.64,0.96 -0.7,0.26 -1.6,0.38 -2.73,0.38 -1.12,0 -2.02,-0.15 -2.72,-0.38 -0.69,-0.24 -1.24,-0.58 -1.64,-0.96 -0.41,-0.38 -0.67,-0.79 -0.79,-1.24 -0.14,-0.43 -0.24,-0.86 -0.24,-1.24l0 -1.48c0,-0.79 0.21,-1.53 0.62,-2.2 0.43,-0.64 1,-1.12 1.74,-1.38 0.39,-0.15 0.79,-0.26 1.29,-0.43 0.48,-0.17 0.96,-0.31 1.41,-0.5 0.45,-0.17 0.84,-0.29 1.19,-0.41 0.34,-0.14 0.55,-0.19 0.65,-0.24 0.07,-0.05 0.19,-0.09 0.31,-0.16 0.14,-0.08 0.26,-0.2 0.41,-0.32 0.14,-0.16 0.23,-0.31 0.31,-0.5 0.09,-0.19 0.14,-0.4 0.14,-0.67l0 -0.59c0,-0.22 -0.05,-0.41 -0.14,-0.65 -0.08,-0.24 -0.24,-0.4 -0.43,-0.62 -0.2,-0.19 -0.51,-0.33 -0.84,-0.45 -0.33,-0.12 -0.76,-0.17 -1.31,-0.17 -1.05,0 -1.75,0.22 -2.15,0.65 -0.31,0.38 -0.53,0.83 -0.55,1.36 0,0.12 -0.1,0.19 -0.21,0.19l-2.23 0c-0.11,0 -0.21,-0.1 -0.21,-0.22l0 -0.55c0,-0.52 0.1,-1.02 0.29,-1.48 0.19,-0.5 0.52,-0.9 0.98,-1.26 0.43,-0.33 1,-0.65 1.69,-0.81 0.67,-0.15 1.48,-0.26 2.44,-0.26l0 0zm2.72 8.37c-0.05,0.22 -0.17,0.36 -0.31,0.48 -0.17,0.12 -0.31,0.17 -0.48,0.24 -0.31,0.12 -0.67,0.24 -1.03,0.36 -0.36,0.14 -0.71,0.26 -1.02,0.36 -0.39,0.14 -0.77,0.26 -1.08,0.38 -0.26,0.12 -0.5,0.26 -0.74,0.43 -0.19,0.16 -0.36,0.38 -0.52,0.64 -0.17,0.29 -0.24,0.6 -0.24,1 0,0.79 0.19,1.39 0.57,1.8 0.38,0.38 1.1,0.59 2.13,0.59 1.05,0 1.76,-0.21 2.17,-0.62 0.38,-0.4 0.57,-1 0.57,-1.74l-0.02 -3.92zm36.66 -8.37c1.84,0 3.23,0.35 4.09,1.09 0.85,0.74 1.28,1.65 1.28,2.75l0 9.31c0,0.38 -0.07,0.79 -0.21,1.24 -0.14,0.45 -0.41,0.88 -0.79,1.24 -0.38,0.36 -0.95,0.69 -1.65,0.96 -0.69,0.26 -1.59,0.38 -2.72,0.38 -1.12,0 -2.03,-0.15 -2.72,-0.38 -0.69,-0.24 -1.24,-0.58 -1.65,-0.96 -0.4,-0.38 -0.66,-0.79 -0.78,-1.24 -0.15,-0.45 -0.22,-0.88 -0.22,-1.24l0 -1.48c0,-0.79 0.22,-1.53 0.62,-2.2 0.41,-0.64 1.01,-1.12 1.75,-1.38 0.38,-0.15 0.78,-0.26 1.28,-0.43 0.48,-0.17 0.96,-0.31 1.41,-0.5 0.46,-0.17 0.84,-0.29 1.2,-0.41 0.33,-0.14 0.55,-0.19 0.64,-0.24 0.07,-0.05 0.19,-0.09 0.31,-0.16 0.14,-0.08 0.26,-0.2 0.41,-0.32 0.14,-0.16 0.24,-0.31 0.31,-0.5 0.09,-0.19 0.14,-0.4 0.14,-0.67l0 -0.59c0,-0.22 -0.05,-0.41 -0.14,-0.65 -0.07,-0.24 -0.24,-0.4 -0.43,-0.62 -0.22,-0.19 -0.5,-0.33 -0.84,-0.45 -0.33,-0.12 -0.76,-0.17 -1.31,-0.17 -1.05,0 -1.74,0.22 -2.15,0.65 -0.31,0.38 -0.52,0.83 -0.55,1.36 0,0.12 -0.09,0.19 -0.21,0.19l-2.29 0c-0.12,0 -0.22,-0.1 -0.22,-0.22l0 -0.55c0,-0.52 0.1,-1.02 0.29,-1.48 0.19,-0.45 0.52,-0.88 0.98,-1.24 0.43,-0.33 1,-0.64 1.69,-0.81 0.72,-0.17 1.53,-0.28 2.48,-0.28l0 0zm2.7 8.37c-0.05,0.22 -0.17,0.36 -0.31,0.48 -0.17,0.12 -0.31,0.17 -0.48,0.24 -0.31,0.12 -0.67,0.24 -1.02,0.36 -0.36,0.14 -0.72,0.26 -1.03,0.36 -0.38,0.14 -0.76,0.26 -1.07,0.38 -0.27,0.12 -0.51,0.26 -0.74,0.43 -0.2,0.16 -0.36,0.38 -0.53,0.64 -0.17,0.26 -0.24,0.6 -0.24,1 0,0.79 0.19,1.39 0.57,1.8 0.39,0.38 1.1,0.59 2.13,0.59 1.05,0 1.77,-0.21 2.17,-0.62 0.38,-0.4 0.57,-1 0.57,-1.74l-0.02 -3.92z"/>
      </g>
      <g id="g21">
       <path id="path11" class="fil0" d="M16.71 26.62c0,-0.12 0.1,-0.22 0.22,-0.22l1.31 0c0.12,0 0.21,0.1 0.21,0.22l0 5.85 2.6 0c0.12,0 0.22,0.09 0.22,0.21l0 1.19c0,0.12 -0.1,0.22 -0.22,0.22l-4.12 0c-0.12,0 -0.22,-0.1 -0.22,-0.22l0 -7.25z"/>
       <path id="path13" class="fil0" d="M21.7 33.8l3.41 -7.35c0.03,-0.07 0.12,-0.12 0.19,-0.12l0.12 0c0.08,0 0.15,0.05 0.19,0.12l3.42 7.35c0.07,0.15 -0.03,0.29 -0.19,0.29l-1.22 0c-0.19,0 -0.29,-0.07 -0.38,-0.26l-0.38 -0.86 -2.99 0 -0.38 0.88c-0.05,0.12 -0.17,0.26 -0.38,0.26l-1.2 0c-0.21,-0.02 -0.28,-0.16 -0.21,-0.31zm4.49 -2.34l-0.84 -1.81 -0.81 1.81 1.65 0z"/>
       <path id="path15" class="fil0" d="M30.51 28.03l-1.58 0c-0.12,0 -0.21,-0.1 -0.21,-0.22l0 -1.19c0,-0.12 0.09,-0.22 0.21,-0.22l4.85 0c0.12,0 0.21,0.1 0.21,0.22l0 1.19c0,0.12 -0.09,0.22 -0.21,0.22l-1.55 0 0 5.84c0,0.12 -0.1,0.22 -0.22,0.22l-1.31 0c-0.12,0 -0.22,-0.1 -0.22,-0.22l0 -5.84 0.03 0z"/>
       <path id="path17" class="fil0" d="M33.73 33.8l3.41 -7.35c0.03,-0.07 0.12,-0.12 0.2,-0.12l0.11 0c0.08,0 0.15,0.05 0.2,0.12l3.41 7.35c0.07,0.15 -0.02,0.29 -0.19,0.29l-1.22 0c-0.19,0 -0.29,-0.07 -0.38,-0.26l-0.38 -0.86 -2.99 0 -0.38 0.88c-0.05,0.12 -0.17,0.26 -0.4,0.26l-1.2 0c-0.17,-0.02 -0.26,-0.16 -0.19,-0.31zm4.49 -2.34l-0.84 -1.81 -0.81 1.81 1.65 0z"/>
       <path id="path19" class="fil0" d="M42.71 26.47c0,-0.09 0.12,-0.16 0.19,-0.16l0.16 0c0.05,0 0.15,0.04 0.2,0.12l2.53 4.72 0.02 0 2.53 -4.72c0.02,-0.08 0.14,-0.12 0.19,-0.12l0.17 0c0.09,0 0.19,0.07 0.19,0.16l1.24 7.36c0.02,0.14 -0.07,0.23 -0.21,0.23l-1.29 0c-0.1,0 -0.19,-0.09 -0.22,-0.16l-0.5 -3.39 -0.02 0 -1.84 3.53c-0.03,0.07 -0.12,0.12 -0.19,0.12l-0.19 0c-0.07,0 -0.15,-0.05 -0.19,-0.12l-1.84 -3.53 -0.03 0 -0.47 3.39c0,0.09 -0.1,0.16 -0.22,0.16l-1.29 0c-0.14,0 -0.24,-0.09 -0.21,-0.23l1.29 -7.36z"/>
      </g>
     </g>
    </g>
   </g>
   <path class="fil0" d="M101.13 18.15c1.85,-0.03 3.34,-1.54 3.34,-3.39 0,-1.85 -1.49,-3.36 -3.34,-3.39l-9.52 -0.01 0 11.44 2.09 0 0 -9.57 7.43 0c0.85,0 1.53,0.68 1.53,1.53 0,0.84 -0.68,1.53 -1.53,1.53l-5.96 0 6.73 6.5 2.7 0 -4.81 -4.63 1.34 -0.01z"/>
   <path class="fil0" d="M147.55 17.99c0.31,1.69 1.47,2.95 3.29,2.95l8.82 0 -1.21 1.85 -7.67 0.01c-3.15,0 -5.23,-2.56 -5.23,-5.72 0,-3.15 2.08,-5.71 5.23,-5.71l9.07 -0.01 -1.16 1.87 -7.85 0c-1.79,0 -2.96,1.23 -3.29,2.89l11.09 0 -1.19 1.87 -9.9 0 0 0z"/>
   <path class="fil0" d="M77.24 11.37c-3.15,0 -5.23,2.55 -5.23,5.71 0,3.16 2.08,5.71 5.23,5.71l8.1 0c3.15,0 5.23,-2.55 5.23,-5.71 0,-3.16 -2.08,-5.71 -5.23,-5.71l-8.1 0zm0 1.86l8.1 0c2.12,0 3.37,1.72 3.37,3.85 0,2.13 -1.24,3.85 -3.37,3.85l-8.1 0c-2.13,0 -3.37,-1.72 -3.37,-3.85 0,-2.13 1.24,-3.85 3.37,-3.85l0 0z"/>
   <path class="fil0" d="M125.13 11.37c-3.15,0 -5.23,2.56 -5.23,5.71 0,3.16 2.08,5.72 5.23,5.72l7.68 -0.01 1.2 -1.85 -8.82 0c-2.13,0 -3.37,-1.73 -3.37,-3.86 0,-2.13 1.24,-3.85 3.37,-3.85l7.86 0 1.16 -1.87 -9.08 0.01 0 0z"/>
   <path class="fil0" d="M120.93 22.79l-6.9 -10.9c-0.43,-0.7 -1.56,-0.7 -2.04,0.03l-6.85 10.87 2.26 0 2.07 -3.28 4.41 0 1.17 -1.87 -4.42 0 2.41 -3.76 5.63 8.91 2.26 0z"/>
   <polygon class="fil0" points="135.6,11.36 137.46,11.36 137.46,20.93 145.56,20.93 144.37,22.8 135.6,22.8 "/>
   <polygon class="fil1" points="57.28,16.71 60.62,16.71 60.62,13.4 61.34,13.4 61.34,16.71 64.68,16.71 64.68,17.45 61.34,17.45 61.34,20.76 60.62,20.76 60.62,17.45 57.28,17.45 "/>
  </g>
 </g>
</svg>
