<?xml version="1.0" encoding="UTF-8"?>
<!DOCTYPE svg PUBLIC "-//W3C//DTD SVG 1.1//EN" "http://www.w3.org/Graphics/SVG/1.1/DTD/svg11.dtd">
<!-- Creator: CorelDRAW 2019 (64-Bit) -->
<svg xmlns="http://www.w3.org/2000/svg" xml:space="preserve" width="200px" height="136px" version="1.1" style="shape-rendering:geometricPrecision; text-rendering:geometricPrecision; image-rendering:optimizeQuality; fill-rule:evenodd; clip-rule:evenodd"
viewBox="0 0 14.73 10.03"
 xmlns:xlink="http://www.w3.org/1999/xlink">
 <defs>
  <style type="text/css">
   <![CDATA[
    .fil0 {fill:#76ABAE}
   ]]>
  </style>
 </defs>
 <g id="Capa_x0020_1">
  <metadata id="CorelCorpID_0Corel-Layer"/>
  <g id="logo-aluraespanhol.svg">
   <g id="LOGO">
    <g id="g23">
     <g id="g9">
      <path id="path7" class="fil0" d="M3.9 0l0.66 0c0.04,0 0.07,0.03 0.07,0.06l0 6.68c0,0.04 -0.03,0.07 -0.07,0.07l-0.66 0c-0.04,0 -0.07,-0.03 -0.07,-0.07l0 -6.68c0,-0.03 0.03,-0.06 0.07,-0.06l0 0zm4.58 5.5l0 0.16c0,0.08 -0.01,0.18 -0.04,0.3 -0.02,0.12 -0.09,0.26 -0.2,0.38 -0.1,0.12 -0.26,0.23 -0.47,0.33 -0.22,0.08 -0.51,0.13 -0.89,0.13 -0.38,0 -0.66,-0.05 -0.88,-0.13 -0.22,-0.09 -0.36,-0.2 -0.48,-0.33 -0.1,-0.12 -0.17,-0.26 -0.19,-0.38 -0.02,-0.13 -0.05,-0.23 -0.05,-0.3l0 -3.8c0,-0.04 0.03,-0.07 0.07,-0.07l0.66 0c0.04,0 0.07,0.03 0.07,0.07l0 3.56c0,0.12 0.01,0.2 0.03,0.26 0.02,0.07 0.05,0.14 0.1,0.19 0.05,0.07 0.13,0.12 0.23,0.16 0.1,0.04 0.24,0.06 0.41,0.06 0.19,0 0.33,-0.02 0.44,-0.06 0.1,-0.04 0.19,-0.09 0.24,-0.15 0.05,-0.06 0.09,-0.12 0.11,-0.19 0.01,-0.07 0.04,-0.12 0.04,-0.29l0 -3.54c0,-0.04 0.03,-0.07 0.06,-0.07l0.67 0c0.04,0 0.06,0.03 0.06,0.07l0.01 3.64zm2.27 -3.7l0.45 0c0.04,0 0.07,0.04 0.06,0.08l-0.16 0.58c0,0.03 -0.03,0.05 -0.05,0.05l-0.32 0c-0.17,0 -0.3,0.02 -0.41,0.07 -0.09,0.05 -0.19,0.09 -0.23,0.15 -0.05,0.07 -0.09,0.12 -0.11,0.19 -0.01,0.07 -0.02,0.13 -0.02,0.19l0 3.64c0,0.03 -0.03,0.06 -0.06,0.06l-0.68 0c-0.03,0 -0.06,-0.03 -0.06,-0.06l0 -3.81c0,-0.07 0.01,-0.16 0.04,-0.29 0.02,-0.13 0.09,-0.25 0.2,-0.38 0.1,-0.12 0.26,-0.23 0.48,-0.33 0.21,-0.1 0.5,-0.14 0.87,-0.14l0 0zm-9.17 0c0.54,0 0.95,0.11 1.2,0.32 0.25,0.22 0.38,0.49 0.38,0.81l0 2.73c0,0.12 -0.02,0.23 -0.06,0.37 -0.04,0.13 -0.12,0.26 -0.23,0.36 -0.12,0.11 -0.28,0.21 -0.49,0.28 -0.2,0.08 -0.47,0.11 -0.8,0.11 -0.33,0 -0.59,-0.04 -0.8,-0.11 -0.2,-0.07 -0.36,-0.17 -0.48,-0.28 -0.12,-0.11 -0.19,-0.23 -0.23,-0.36 -0.04,-0.13 -0.07,-0.25 -0.07,-0.37l0 -0.43c0,-0.23 0.06,-0.45 0.18,-0.65 0.13,-0.19 0.3,-0.33 0.51,-0.4 0.12,-0.04 0.24,-0.08 0.38,-0.13 0.14,-0.05 0.28,-0.09 0.42,-0.15 0.13,-0.05 0.24,-0.08 0.35,-0.12 0.09,-0.04 0.16,-0.05 0.19,-0.07 0.02,-0.01 0.05,-0.02 0.09,-0.04 0.04,-0.03 0.07,-0.06 0.12,-0.1 0.04,-0.04 0.07,-0.09 0.09,-0.14 0.03,-0.06 0.04,-0.12 0.04,-0.2l0 -0.17c0,-0.07 -0.01,-0.12 -0.04,-0.19 -0.02,-0.07 -0.07,-0.12 -0.13,-0.19 -0.06,-0.05 -0.15,-0.09 -0.24,-0.13 -0.1,-0.03 -0.23,-0.05 -0.39,-0.05 -0.31,0 -0.51,0.07 -0.63,0.19 -0.09,0.11 -0.15,0.25 -0.16,0.4 0,0.04 -0.03,0.06 -0.07,0.06l-0.65 0c-0.03,0 -0.06,-0.03 -0.06,-0.07l0 -0.16c0,-0.15 0.03,-0.3 0.08,-0.43 0.06,-0.15 0.16,-0.27 0.29,-0.37 0.13,-0.1 0.3,-0.19 0.5,-0.24 0.2,-0.04 0.43,-0.08 0.71,-0.08l0 0zm0.8 2.46c-0.01,0.06 -0.05,0.11 -0.09,0.14 -0.05,0.04 -0.09,0.05 -0.14,0.07 -0.09,0.04 -0.19,0.07 -0.3,0.11 -0.1,0.04 -0.21,0.07 -0.3,0.1 -0.11,0.04 -0.23,0.08 -0.32,0.11 -0.07,0.04 -0.14,0.08 -0.21,0.13 -0.06,0.05 -0.11,0.11 -0.16,0.19 -0.05,0.08 -0.07,0.17 -0.07,0.29 0,0.24 0.06,0.41 0.17,0.53 0.11,0.11 0.32,0.17 0.62,0.17 0.31,0 0.52,-0.06 0.64,-0.18 0.11,-0.12 0.17,-0.29 0.17,-0.51l-0.01 -1.15zm10.77 -2.46c0.54,0 0.94,0.11 1.2,0.32 0.25,0.22 0.38,0.49 0.38,0.81l0 2.73c0,0.12 -0.03,0.23 -0.07,0.37 -0.04,0.13 -0.12,0.26 -0.23,0.36 -0.11,0.11 -0.28,0.21 -0.48,0.28 -0.21,0.08 -0.47,0.11 -0.8,0.11 -0.33,0 -0.6,-0.04 -0.8,-0.11 -0.2,-0.07 -0.36,-0.17 -0.48,-0.28 -0.12,-0.11 -0.2,-0.23 -0.24,-0.36 -0.04,-0.14 -0.06,-0.26 -0.06,-0.37l0 -0.43c0,-0.23 0.06,-0.45 0.18,-0.65 0.12,-0.19 0.3,-0.33 0.52,-0.4 0.11,-0.04 0.23,-0.08 0.37,-0.13 0.14,-0.05 0.28,-0.09 0.42,-0.15 0.13,-0.05 0.24,-0.08 0.35,-0.12 0.1,-0.04 0.16,-0.05 0.19,-0.07 0.02,-0.01 0.05,-0.02 0.09,-0.04 0.04,-0.03 0.08,-0.06 0.12,-0.1 0.04,-0.04 0.07,-0.09 0.09,-0.14 0.03,-0.06 0.04,-0.12 0.04,-0.2l0 -0.17c0,-0.07 -0.01,-0.12 -0.04,-0.19 -0.02,-0.07 -0.07,-0.12 -0.13,-0.19 -0.06,-0.05 -0.14,-0.09 -0.24,-0.13 -0.1,-0.03 -0.23,-0.05 -0.39,-0.05 -0.31,0 -0.51,0.07 -0.63,0.19 -0.09,0.11 -0.15,0.25 -0.16,0.4 0,0.04 -0.03,0.06 -0.06,0.06l-0.68 0c-0.03,0 -0.06,-0.03 -0.06,-0.07l0 -0.16c0,-0.15 0.03,-0.3 0.08,-0.43 0.06,-0.13 0.16,-0.26 0.29,-0.37 0.13,-0.09 0.3,-0.19 0.5,-0.23 0.21,-0.05 0.45,-0.09 0.73,-0.09l0 0zm0.79 2.46c-0.01,0.06 -0.05,0.11 -0.09,0.14 -0.05,0.04 -0.09,0.05 -0.14,0.07 -0.09,0.04 -0.2,0.07 -0.3,0.11 -0.11,0.04 -0.21,0.07 -0.3,0.1 -0.12,0.04 -0.23,0.08 -0.32,0.11 -0.08,0.04 -0.15,0.08 -0.22,0.13 -0.05,0.05 -0.1,0.11 -0.15,0.19 -0.05,0.08 -0.07,0.17 -0.07,0.29 0,0.24 0.06,0.41 0.17,0.53 0.11,0.11 0.32,0.17 0.62,0.17 0.31,0 0.52,-0.06 0.64,-0.18 0.11,-0.12 0.17,-0.29 0.17,-0.51l-0.01 -1.15z"/>
     </g>
     <g id="g21">
      <path id="path11" class="fil0" d="M4.91 7.81c0,-0.03 0.02,-0.06 0.06,-0.06l0.38 0c0.04,0 0.07,0.03 0.07,0.06l0 1.72 0.76 0c0.04,0 0.06,0.03 0.06,0.07l0 0.35c0,0.03 -0.02,0.06 -0.06,0.06l-1.21 0c-0.04,0 -0.06,-0.03 -0.06,-0.06l0 -2.14z"/>
      <path id="path13" class="fil0" d="M6.37 9.92l1 -2.15c0.01,-0.03 0.04,-0.04 0.06,-0.04l0.03 0c0.03,0 0.05,0.01 0.06,0.04l1 2.15c0.02,0.05 0,0.09 -0.05,0.09l-0.36 0c-0.06,0 -0.08,-0.02 -0.11,-0.08l-0.11 -0.25 -0.88 0 -0.11 0.26c-0.02,0.03 -0.05,0.08 -0.12,0.08l-0.35 0c-0.06,-0.01 -0.08,-0.05 -0.06,-0.1zm1.32 -0.68l-0.25 -0.53 -0.23 0.53 0.48 0z"/>
      <path id="path15" class="fil0" d="M8.96 8.23l-0.47 0c-0.03,0 -0.06,-0.03 -0.06,-0.06l0 -0.36c0,-0.03 0.03,-0.06 0.06,-0.06l1.43 0c0.03,0 0.06,0.03 0.06,0.06l0 0.36c0,0.03 -0.03,0.06 -0.06,0.06l-0.46 0 0 1.72c0,0.03 -0.03,0.06 -0.06,0.06l-0.39 0c-0.03,0 -0.06,-0.03 -0.06,-0.06l0 -1.72 0.01 0z"/>
      <path id="path17" class="fil0" d="M9.9 9.92l1.01 -2.15c0,-0.03 0.03,-0.04 0.05,-0.04l0.04 0c0.02,0 0.04,0.01 0.05,0.04l1.01 2.15c0.02,0.05 -0.01,0.09 -0.06,0.09l-0.36 0c-0.05,0 -0.08,-0.02 -0.11,-0.08l-0.11 -0.25 -0.88 0 -0.11 0.26c-0.01,0.03 -0.05,0.08 -0.12,0.08l-0.35 0c-0.05,-0.01 -0.08,-0.05 -0.06,-0.1zm1.32 -0.68l-0.24 -0.53 -0.24 0.53 0.48 0z"/>
      <path id="path19" class="fil0" d="M12.54 7.77c0,-0.03 0.03,-0.05 0.05,-0.05l0.05 0c0.02,0 0.05,0.02 0.06,0.04l0.74 1.39 0.01 0 0.74 -1.39c0.01,-0.02 0.05,-0.04 0.06,-0.04l0.05 0c0.03,0 0.05,0.02 0.05,0.05l0.37 2.16c0.01,0.04 -0.02,0.07 -0.06,0.07l-0.38 0c-0.03,0 -0.06,-0.03 -0.07,-0.05l-0.14 -0.99 -0.01 0 -0.54 1.03c-0.01,0.03 -0.03,0.04 -0.06,0.04l-0.05 0c-0.02,0 -0.04,-0.01 -0.06,-0.04l-0.54 -1.03 0 0 -0.14 0.99c0,0.03 -0.03,0.05 -0.07,0.05l-0.38 0c-0.04,0 -0.07,-0.03 -0.06,-0.07l0.38 -2.16z"/>
     </g>
    </g>
   </g>
  </g>
 </g>
</svg>
