<?xml version="1.0" encoding="UTF-8"?>
<!DOCTYPE svg PUBLIC "-//W3C//DTD SVG 1.1//EN" "http://www.w3.org/Graphics/SVG/1.1/DTD/svg11.dtd">
<!-- Creator: CorelDRAW 2019 (64-Bit) -->
<svg xmlns="http://www.w3.org/2000/svg" xml:space="preserve" width="20.0111mm" height="23.4987mm" version="1.1" style="shape-rendering:geometricPrecision; text-rendering:geometricPrecision; image-rendering:optimizeQuality; fill-rule:evenodd; clip-rule:evenodd"
viewBox="0 0 81.59 95.81"
 xmlns:xlink="http://www.w3.org/1999/xlink">
 <defs>
  <style type="text/css">
   <![CDATA[
    .fil0 {fill:#EEEEEE;fill-rule:nonzero}
   ]]>
  </style>
 </defs>
 <g id="Capa_x0020_1">
  <metadata id="CorelCorpID_0Corel-Layer"/>
  <path id="css-16-svgrepo-com.svg" class="fil0" d="M10.58 9.07c-0.83,0 -1.51,0.68 -1.51,1.51l0 57.72c0,0.54 0.29,1.04 0.76,1.31l29.37 16.94c0.46,0.26 1.02,0.27 1.48,0.02l31.07 -17.03c0.48,-0.27 0.78,-0.77 0.78,-1.32l0 -57.63c0,-0.83 -0.68,-1.51 -1.51,-1.51l-60.44 0zm-10.58 1.51c0,-5.84 4.74,-10.58 10.58,-10.58l60.44 0c5.84,0 10.58,4.74 10.58,10.58l0 57.63c0,3.86 -2.11,7.42 -5.49,9.28l-31.07 17.03c-3.24,1.77 -7.17,1.73 -10.37,-0.11l-29.37 -16.94c-3.27,-1.89 -5.29,-5.38 -5.29,-9.16l0 -57.72zm22.66 15.11c0,-2.5 2.03,-4.53 4.53,-4.53l27.89 0c2.5,0 4.53,2.03 4.53,4.53l0 36.84c0,1.72 -0.97,3.29 -2.51,4.05l-13.95 6.97c-1.28,0.64 -2.78,0.64 -4.05,0l-13.95 -6.97c-1.54,-0.77 -2.51,-2.34 -2.51,-4.05l0 -3.49c0,-2.5 2.03,-4.53 4.53,-4.53 2.5,0 4.53,2.03 4.53,4.53l0 0.69 9.41 4.71 9.41 -4.71 0 -10.1 -15.81 0c-2.5,0 -4.53,-2.03 -4.53,-4.53 0,-2.5 2.03,-4.53 4.53,-4.53l15.81 0 0 -10.34 -23.36 0c-2.5,0 -4.53,-2.03 -4.53,-4.53z"/>
 </g>
</svg>
