<?xml version="1.0" encoding="UTF-8"?>
<!DOCTYPE svg PUBLIC "-//W3C//DTD SVG 1.1//EN" "http://www.w3.org/Graphics/SVG/1.1/DTD/svg11.dtd">
<!-- Creator: CorelDRAW 2019 (64-Bit) -->
<svg xmlns="http://www.w3.org/2000/svg" xml:space="preserve" width="23.1264mm" height="23.9678mm" version="1.1" style="shape-rendering:geometricPrecision; text-rendering:geometricPrecision; image-rendering:optimizeQuality; fill-rule:evenodd; clip-rule:evenodd"
viewBox="0 0 83.19 86.22"
 xmlns:xlink="http://www.w3.org/1999/xlink">
 <defs>
  <style type="text/css">
   <![CDATA[
    .fil0 {fill:#EEEEEE}
   ]]>
  </style>
 </defs>
 <g id="Capa_x0020_1">
  <metadata id="CorelCorpID_0Corel-Layer"/>
  <g id="_2524867238416">
   <path class="fil0" d="M23.24 70.56l32.84 0 0 4.88 -32.84 0 0 -4.88zm0 -9.09l32.84 0 0 5.05 -32.84 0 0 -5.05zm0 -8.93l32.84 0 0 4.88 -32.84 0 0 -4.88zm11.79 -16.33c-1.71,-2.55 -5.54,-2.48 -6.77,0.14 -1.12,2.39 -0.06,6.11 3.38,6.03 1.42,-0.04 2.75,-0.84 3.39,-1.79l3.37 2.86c-2.45,3.66 -8.84,4.31 -12.97,1.18 -3.6,-2.73 -3.9,-8.72 -0.51,-12.14 3.44,-3.47 10.97,-3.06 13.48,0.68l-3.37 3.03zm3.37 -5.73l5.73 0 1.81 4.59c0.38,0.88 1.49,4.08 2.07,4.5l1.88 -4.52c0.3,-0.74 0.59,-1.46 0.94,-2.26 0.33,-0.78 0.69,-1.47 0.89,-2.31l5.22 0 -5.78 13.75c-0.31,0.69 -0.61,1.34 -0.78,2.08l-5.39 0c-0.05,-0.56 -5.76,-14.15 -6.57,-15.83zm-23.24 55.74l49.17 0 0 -67.7 -49.17 0 0 67.7z"/>
   <path class="fil0" d="M10.11 76.12l0 -62.64 59.28 0 0 67.19c2.1,0 3.89,0.51 6.06,0.51 0,-2.87 3.53,-33.21 3.85,-36.23 0.64,-6.14 1.23,-12 1.91,-18.13 0.15,-1.38 0.38,-2.91 0.48,-4.4 0.1,-1.48 0.41,-3.04 0.5,-4.55 0.18,-2.97 0.77,-6.15 1.01,-9.09l-21.46 -2.29c-1.2,-0.16 -2.43,-0.26 -3.49,-0.38 -1.17,-0.13 -2.57,-0.37 -3.67,-0.37l-0.34 -5.73 -16.41 1.11c-1.69,0.25 -9.5,0.59 -12.25,0.89 -1.42,0.16 -2.88,0.05 -4.28,0.26 -1.16,0.18 -2.93,0.23 -4.12,0.26l-12.43 0.87c-1.26,0.14 -2.74,0.16 -4.08,0.3 -1.04,0.11 -0.56,0.36 -0.49,1.35l4.88 70.06c-0.03,1.82 0.17,1.38 1.71,1.2l3.34 -0.19z"/>
  </g>
 </g>
</svg>
