<?xml version="1.0" encoding="UTF-8"?>
<!DOCTYPE svg PUBLIC "-//W3C//DTD SVG 1.1//EN" "http://www.w3.org/Graphics/SVG/1.1/DTD/svg11.dtd">
<!-- Creator: CorelDRAW 2019 (64-Bit) -->
<svg xmlns="http://www.w3.org/2000/svg" xml:space="preserve" width="30px" height="31px" version="1.1" style="shape-rendering:geometricPrecision; text-rendering:geometricPrecision; image-rendering:optimizeQuality; fill-rule:evenodd; clip-rule:evenodd"
viewBox="0 0 0.98 1.01"
 xmlns:xlink="http://www.w3.org/1999/xlink">
 <defs>
  <style type="text/css">
   <![CDATA[
    .fil0 {fill:#76ABAE}
   ]]>
  </style>
 </defs>
 <g id="Capa_x0020_1">
  <metadata id="CorelCorpID_0Corel-Layer"/>
  <g id="_2524961092752">
   <path class="fil0" d="M0.27 0.83l0.39 0 0 0.06 -0.39 0 0 -0.06zm0 -0.11l0.39 0 0 0.06 -0.39 0 0 -0.06zm0 -0.1l0.39 0 0 0.06 -0.39 0 0 -0.06zm0.14 -0.19c-0.02,-0.03 -0.06,-0.03 -0.08,0 -0.01,0.03 0,0.07 0.04,0.07 0.02,0 0.03,-0.01 0.04,-0.02l0.04 0.03c-0.03,0.04 -0.1,0.05 -0.15,0.01 -0.04,-0.03 -0.05,-0.1 -0.01,-0.14 0.04,-0.04 0.13,-0.03 0.16,0.01l-0.04 0.04zm0.04 -0.07l0.07 0 0.02 0.05c0,0.01 0.02,0.05 0.02,0.06l0.03 -0.06c0,-0.01 0,-0.01 0.01,-0.02 0,-0.01 0.01,-0.02 0.01,-0.03l0.06 0 -0.07 0.16c0,0.01 -0.01,0.02 -0.01,0.02l-0.06 0c0,0 -0.07,-0.16 -0.08,-0.18zm-0.27 0.65l0.58 0 0 -0.79 -0.58 0 0 0.79z"/>
   <path class="fil0" d="M0.12 0.9l0 -0.74 0.7 0 0 0.79c0.02,0 0.04,0 0.07,0 0,-0.03 0.04,-0.39 0.04,-0.42 0.01,-0.07 0.02,-0.14 0.03,-0.21 0,-0.02 0,-0.04 0,-0.06 0,-0.01 0.01,-0.03 0.01,-0.05 0,-0.03 0.01,-0.07 0.01,-0.11l-0.25 -0.02c-0.02,-0.01 -0.03,-0.01 -0.04,-0.01 -0.02,0 -0.04,0 -0.05,0l0 -0.07 -0.2 0.01c-0.02,0.01 -0.11,0.01 -0.14,0.01 -0.02,0.01 -0.03,0 -0.05,0.01 -0.01,0 -0.03,0 -0.05,0l-0.14 0.01c-0.02,0 -0.04,0 -0.05,0 -0.01,0 -0.01,0.01 -0.01,0.02l0.06 0.82c0,0.02 0,0.02 0.02,0.02l0.04 0z"/>
  </g>
 </g>
</svg>
