<?xml version="1.0" encoding="UTF-8"?>
<!DOCTYPE svg PUBLIC "-//W3C//DTD SVG 1.1//EN" "http://www.w3.org/Graphics/SVG/1.1/DTD/svg11.dtd">
<!-- Creator: CorelDRAW 2019 (64-Bit) -->
<svg xmlns="http://www.w3.org/2000/svg" xml:space="preserve" width="22.2383mm" height="16.9761mm" version="1.1" style="shape-rendering:geometricPrecision; text-rendering:geometricPrecision; image-rendering:optimizeQuality; fill-rule:evenodd; clip-rule:evenodd"
viewBox="0 0 147.2 112.37"
 xmlns:xlink="http://www.w3.org/1999/xlink">
 <defs>
  <style type="text/css">
   <![CDATA[
    .fil0 {fill:#EEEEEE}
   ]]>
  </style>
 </defs>
 <g id="Capa_x0020_1">
  <metadata id="CorelCorpID_0Corel-Layer"/>
  <path id="discord-svgrepo-com_x0020__x0028_2_x0029_.svg" class="fil0" d="M98.09 76.65c-7.41,-0.49 -13.24,-6.62 -13.24,-14.11 0,-0.25 0,-0.5 0.02,-0.75l0 0.03c-0.02,-0.24 -0.03,-0.51 -0.03,-0.79 0,-7.48 5.84,-13.59 13.21,-14.04l0.04 0c7.4,0.4 13.25,6.5 13.25,13.97 0,0.3 -0.01,0.6 -0.03,0.9l0 -0.04c0.01,0.25 0.02,0.53 0.02,0.82 0,7.47 -5.84,13.58 -13.21,14l-0.04 0 0.01 0zm-48.89 0c-7.41,-0.49 -13.24,-6.62 -13.24,-14.11 0,-0.25 0,-0.5 0.02,-0.75l0 0.03c-0.01,-0.24 -0.02,-0.51 -0.02,-0.79 0,-7.48 5.84,-13.59 13.21,-14.04l0.04 0c7.4,0.4 13.25,6.5 13.25,13.97 0,0.3 -0.01,0.6 -0.03,0.9l0 -0.04c0.02,0.24 0.03,0.51 0.03,0.79 0,7.48 -5.84,13.59 -13.21,14.04l-0.04 0zm75.39 -67.2c-8.65,-4.08 -18.7,-7.31 -29.21,-9.18l-0.73 -0.11c-0.02,-0 -0.05,-0.01 -0.08,-0.01 -0.17,0 -0.32,0.09 -0.4,0.23l0 0c-1.15,2.02 -2.39,4.53 -3.52,7.11l-0.21 0.54c-5.05,-0.81 -10.88,-1.27 -16.82,-1.27 -5.94,0 -11.76,0.46 -17.45,1.35l0.63 -0.08c-1.32,-3.09 -2.59,-5.6 -3.99,-8.04l0.2 0.38c-0.08,-0.14 -0.24,-0.23 -0.41,-0.23 -0.02,0 -0.05,0 -0.08,0l0.01 0c-11.25,1.98 -21.3,5.2 -30.69,9.6l0.74 -0.31c-0.08,0.03 -0.15,0.09 -0.2,0.17l0 0c-14,19.83 -22.38,44.49 -22.38,71.12 0,4.45 0.23,8.84 0.69,13.17l-0.04 -0.54c0.01,0.14 0.09,0.26 0.19,0.34l0 0c10.5,7.85 22.71,14.18 35.88,18.34l0.86 0.24c0.04,0.01 0.09,0.02 0.14,0.02 0.16,0 0.29,-0.07 0.38,-0.19l0 0c2.62,-3.53 5.12,-7.54 7.29,-11.74l0.23 -0.49c0.03,-0.06 0.05,-0.13 0.05,-0.21 0,-0.2 -0.13,-0.37 -0.3,-0.44l-0 0c-4.47,-1.73 -8.26,-3.57 -11.86,-5.68l0.38 0.21c-0.14,-0.08 -0.24,-0.24 -0.24,-0.41 0,-0.15 0.07,-0.29 0.19,-0.37l0 0c0.77,-0.58 1.55,-1.18 2.28,-1.79 0.08,-0.06 0.18,-0.1 0.29,-0.1 0.07,0 0.13,0.01 0.19,0.04l-0 0c10.83,5.21 23.55,8.25 36.97,8.25 13.42,0 26.14,-3.04 37.5,-8.47l-0.52 0.23c0.06,-0.03 0.12,-0.04 0.2,-0.04 0.11,0 0.21,0.04 0.29,0.1l0 0c0.74,0.61 1.51,1.22 2.29,1.79 0.11,0.09 0.19,0.23 0.19,0.38 0,0.17 -0.09,0.32 -0.23,0.4l0 0c-3.24,1.94 -7.03,3.77 -10.97,5.29l-0.51 0.18c-0.18,0.07 -0.3,0.24 -0.3,0.44 0,0.08 0.02,0.15 0.05,0.22l0 -0c2.46,4.71 4.95,8.71 7.71,12.5l-0.2 -0.28c0.08,0.12 0.23,0.2 0.38,0.2 0.05,0 0.1,-0.01 0.14,-0.02l-0 0c14.06,-4.38 26.29,-10.7 37.12,-18.8l-0.32 0.23c0.11,-0.08 0.18,-0.2 0.19,-0.34l0 0c0.43,-3.85 0.67,-8.31 0.67,-12.83 0,-26.57 -8.4,-51.17 -22.68,-71.3l0.26 0.38c-0.04,-0.08 -0.11,-0.14 -0.19,-0.18l0 0 -0.01 0.01z"/>
 </g>
</svg>
