<?xml version="1.0" encoding="UTF-8"?>
<!DOCTYPE svg PUBLIC "-//W3C//DTD SVG 1.1//EN" "http://www.w3.org/Graphics/SVG/1.1/DTD/svg11.dtd">
<!-- Creator: CorelDRAW 2019 (64-Bit) -->
<svg xmlns="http://www.w3.org/2000/svg" xml:space="preserve" width="50px" height="38px" version="1.1" style="shape-rendering:geometricPrecision; text-rendering:geometricPrecision; image-rendering:optimizeQuality; fill-rule:evenodd; clip-rule:evenodd"
viewBox="0 0 2.75 2.1"
 xmlns:xlink="http://www.w3.org/1999/xlink">
 <defs>
  <style type="text/css">
   <![CDATA[
    .fil0 {fill:#76ABAE}
   ]]>
  </style>
 </defs>
 <g id="Capa_x0020_1">
  <metadata id="CorelCorpID_0Corel-Layer"/>
  <path id="discord-svgrepo-com_x0020__x0028_2_x0029_.svg" class="fil0" d="M1.83 1.43c-0.14,-0.01 -0.25,-0.12 -0.25,-0.26 0,-0.01 0,-0.01 0,-0.02l0 0c0,0 0,-0.01 0,-0.01 0,-0.14 0.11,-0.25 0.25,-0.26l0 0c0.14,0 0.25,0.12 0.25,0.26 0,0 0,0.01 0,0.01l0 0c0,0.01 0,0.01 0,0.02 0,0.14 -0.11,0.25 -0.25,0.26l0 0 0 0zm-0.91 0c-0.14,-0.01 -0.25,-0.12 -0.25,-0.26 0,-0.01 0,-0.01 0,-0.02l0 0c0,0 0,-0.01 0,-0.01 0,-0.14 0.11,-0.25 0.25,-0.26l0 0c0.14,0 0.25,0.12 0.25,0.26 0,0 0,0.01 0,0.01l0 0c0,0.01 0,0.01 0,0.02 0,0.14 -0.11,0.25 -0.25,0.26l0 0zm1.41 -1.25c-0.17,-0.08 -0.35,-0.14 -0.55,-0.17l-0.01 -0.01c0,0 0,0 -0.01,0 0,0 0,0 0,0.01l0 0c-0.02,0.03 -0.05,0.08 -0.07,0.13l0 0.01c-0.1,-0.02 -0.21,-0.02 -0.32,-0.02 -0.11,0 -0.22,0 -0.32,0.02l0.01 0c-0.02,-0.06 -0.05,-0.1 -0.07,-0.15l0 0.01c0,-0.01 -0.01,-0.01 -0.01,-0.01 0,0 0,0 0,0l0 0c-0.21,0.04 -0.4,0.1 -0.57,0.18l0.01 0c0,0 0,0 0,0l0 0c-0.26,0.37 -0.42,0.83 -0.42,1.33 0,0.08 0,0.16 0.01,0.24l0 -0.01c0,0.01 0,0.01 0.01,0.01l0 0c0.19,0.15 0.42,0.26 0.67,0.34l0.01 0.01c0,0 0,0 0,0 0.01,0 0.01,-0.01 0.01,-0.01l0 0c0.05,-0.06 0.1,-0.14 0.14,-0.22l0 -0.01c0,0 0,0 0,0 0,0 0,-0.01 0,-0.01l0 0c-0.09,-0.03 -0.16,-0.06 -0.22,-0.1l0 0c0,0 0,0 0,-0.01 0,0 0,0 0,0l0 0c0.02,-0.02 0.03,-0.03 0.04,-0.04 0.01,0 0.01,0 0.01,0 0,0 0,0 0,0l0 0c0.2,0.1 0.44,0.15 0.69,0.15 0.25,0 0.49,-0.05 0.7,-0.15l-0.01 0c0,0 0.01,0 0.01,0 0,0 0,0 0,0l0 0c0.02,0.01 0.03,0.02 0.04,0.04 0.01,0 0.01,0 0.01,0 0,0.01 0,0.01 -0.01,0.01l0 0c-0.06,0.04 -0.13,0.07 -0.2,0.1l-0.01 0c0,0 -0.01,0.01 -0.01,0.01 0,0 0,0 0,0l0 0c0.05,0.09 0.1,0.17 0.15,0.24l0 -0.01c0,0 0,0.01 0,0.01 0,0 0,0 0,0l0 0c0.27,-0.09 0.5,-0.2 0.7,-0.36l-0.01 0.01c0,0 0,0 0.01,-0.01l0 0c0,-0.07 0.01,-0.15 0.01,-0.24 0,-0.49 -0.16,-0.95 -0.43,-1.33l0.01 0.01c0,0 0,0 0,0l0 0 0 0z"/>
 </g>
</svg>
