<?xml version="1.0" encoding="UTF-8"?>
<!DOCTYPE svg PUBLIC "-//W3C//DTD SVG 1.1//EN" "http://www.w3.org/Graphics/SVG/1.1/DTD/svg11.dtd">
<!-- Creator: CorelDRAW 2019 (64-Bit) -->
<svg xmlns="http://www.w3.org/2000/svg" xml:space="preserve" width="380px" height="234px" version="1.1" style="shape-rendering:geometricPrecision; text-rendering:geometricPrecision; image-rendering:optimizeQuality; fill-rule:evenodd; clip-rule:evenodd"
viewBox="0 0 98.45 60.62"
 xmlns:xlink="http://www.w3.org/1999/xlink">
 <defs>
  <style type="text/css">
   <![CDATA[
    .str0 {stroke:#373435;stroke-width:0.18;stroke-miterlimit:22.9256}
    .fil0 {fill:none}
    .fil1 {fill:#76ABAE;fill-rule:nonzero}
   ]]>
  </style>
   <clipPath id="id0">
    <path d="M4.86 0.9l89.35 0c1.83,0 3.34,1.5 3.34,3.34l0 51.48c0,1.84 -1.51,3.35 -3.34,3.35l-89.35 0c-1.84,0 -3.35,-1.51 -3.35,-3.35l0 -51.48c0,-1.84 1.51,-3.34 3.35,-3.34z"/>
   </clipPath>
    <clipPath id="id1">
     <path d="M4.86 0.9l89.35 0c1.83,0 3.34,1.5 3.34,3.34l0 51.48c0,1.84 -1.51,3.35 -3.34,3.35l-89.35 0c-1.84,0 -3.35,-1.51 -3.35,-3.35l0 -51.48c0,-1.84 1.51,-3.34 3.35,-3.34z"/>
    </clipPath>
    <clipPath id="id2">
     <path d="M4.86 0.9l89.35 0c1.83,0 3.34,1.5 3.34,3.34l0 51.48c0,1.84 -1.51,3.35 -3.34,3.35l-89.35 0c-1.84,0 -3.35,-1.51 -3.35,-3.35l0 -51.48c0,-1.84 1.51,-3.34 3.35,-3.34z"/>
    </clipPath>
 </defs>
 <g id="Capa_x0020_1">
  <metadata id="CorelCorpID_0Corel-Layer"/>
  <g>
  </g>
  <g style="clip-path:url(#id0)">
   <g>
   </g>
   <g style="clip-path:url(#id1)">
    <image id="Encriptador.jpeg" x="1.22" y="0.84" width="96.93" height="58.28" xlink:href="Encriptador_Images\Encriptador_ImgID1.png"/>
   </g>
   <g style="clip-path:url(#id2)">
   </g>
  </g>
  <path class="fil0 str0" d="M4.86 0.9l89.35 0c1.83,0 3.34,1.5 3.34,3.34l0 51.48c0,1.84 -1.51,3.35 -3.34,3.35l-89.35 0c-1.84,0 -3.35,-1.51 -3.35,-3.35l0 -51.48c0,-1.84 1.51,-3.34 3.35,-3.34z"/>
  <path class="fil1" d="M4.28 0l89.89 0c1.18,0 2.25,0.48 3.02,1.26 0.78,0.77 1.26,1.84 1.26,3.02l0 52.06c0,1.18 -0.48,2.25 -1.26,3.02 -0.77,0.78 -1.84,1.26 -3.02,1.26l-89.89 0c-1.18,0 -2.25,-0.48 -3.02,-1.26 -0.78,-0.77 -1.26,-1.84 -1.26,-3.02l0 -52.06c0,-1.18 0.48,-2.25 1.26,-3.02 0.77,-0.78 1.84,-1.26 3.02,-1.26zm89.89 1.79l-89.89 0c-0.68,0 -1.3,0.28 -1.76,0.73 -0.45,0.46 -0.73,1.08 -0.73,1.76l0 52.06c0,0.68 0.28,1.3 0.73,1.75 0.46,0.45 1.08,0.73 1.76,0.73l89.89 0c0.68,0 1.3,-0.28 1.75,-0.73 0.45,-0.45 0.73,-1.07 0.73,-1.75l0 -52.06c0,-0.68 -0.28,-1.3 -0.73,-1.76 -0.45,-0.45 -1.07,-0.73 -1.75,-0.73z"/>
 </g>
</svg>
