<?xml version="1.0" encoding="UTF-8"?>
<!DOCTYPE svg PUBLIC "-//W3C//DTD SVG 1.1//EN" "http://www.w3.org/Graphics/SVG/1.1/DTD/svg11.dtd">
<!-- Creator: CorelDRAW 2019 (64-Bit) -->
<svg xmlns="http://www.w3.org/2000/svg" xml:space="preserve" width="50px" height="72px" version="1.1" style="shape-rendering:geometricPrecision; text-rendering:geometricPrecision; image-rendering:optimizeQuality; fill-rule:evenodd; clip-rule:evenodd"
viewBox="0 0 2.03 2.91"
 xmlns:xlink="http://www.w3.org/1999/xlink">
 <defs>
  <style type="text/css">
   <![CDATA[
    .fil0 {fill:#76ABAE}
   ]]>
  </style>
 </defs>
 <g id="Capa_x0020_1">
  <metadata id="CorelCorpID_0Corel-Layer"/>
  <path id="figma-icon-one-color.svg" class="fil0" d="M1.78 1c0.15,-0.1 0.24,-0.26 0.24,-0.46 0,-0.3 -0.24,-0.54 -0.54,-0.54l-0.94 0c-0.3,0 -0.54,0.25 -0.54,0.54 0,0.2 0.1,0.36 0.25,0.46 -0.15,0.1 -0.25,0.27 -0.25,0.46 0,0.19 0.1,0.35 0.25,0.45 -0.15,0.1 -0.25,0.27 -0.25,0.46 0,0.3 0.25,0.54 0.55,0.54 0.3,0 0.55,-0.25 0.55,-0.55l0 -0.5c0.1,0.09 0.23,0.14 0.37,0.14l0.01 0c0.3,0 0.55,-0.24 0.55,-0.54 -0.01,-0.19 -0.1,-0.36 -0.25,-0.46zm-0.86 1.36c0,0.21 -0.16,0.37 -0.37,0.37 -0.21,0 -0.37,-0.16 -0.37,-0.36 0,-0.2 0.16,-0.37 0.36,-0.37l0.38 0 0 0.36zm0 -0.54l-0.38 0c-0.2,0 -0.36,-0.16 -0.36,-0.36 0,-0.21 0.16,-0.37 0.37,-0.37l0.37 0 0 0.73 0 0zm0 -0.91l-0.38 0c-0.2,0 -0.36,-0.16 -0.36,-0.37 0,-0.2 0.16,-0.36 0.36,-0.36l0.38 0 0 0.73zm0.18 -0.73l0.38 0c0.2,0 0.37,0.16 0.37,0.36 0,0.21 -0.17,0.37 -0.37,0.37l-0.38 0 0 -0.73zm0.38 1.64l-0.01 0c-0.2,0 -0.37,-0.16 -0.37,-0.36 0,-0.21 0.17,-0.37 0.37,-0.37l0.01 0c0.2,0 0.37,0.16 0.37,0.37 0,0.2 -0.17,0.36 -0.37,0.36z"/>
 </g>
</svg>
