<?xml version="1.0" encoding="UTF-8"?>
<!DOCTYPE svg PUBLIC "-//W3C//DTD SVG 1.1//EN" "http://www.w3.org/Graphics/SVG/1.1/DTD/svg11.dtd">
<!-- Creator: CorelDRAW 2019 (64-Bit) -->
<svg xmlns="http://www.w3.org/2000/svg" xml:space="preserve" width="16.0184mm" height="23.0306mm" version="1.1" style="shape-rendering:geometricPrecision; text-rendering:geometricPrecision; image-rendering:optimizeQuality; fill-rule:evenodd; clip-rule:evenodd"
viewBox="0 0 78.54 112.93"
 xmlns:xlink="http://www.w3.org/1999/xlink">
 <defs>
  <style type="text/css">
   <![CDATA[
    .fil0 {fill:#EEEEEE}
   ]]>
  </style>
 </defs>
 <g id="Capa_x0020_1">
  <metadata id="CorelCorpID_0Corel-Layer"/>
  <path id="figma-icon-one-color.svg" class="fil0" d="M68.95 38.79c5.74,-3.76 9.55,-10.28 9.55,-17.67 0,-11.66 -9.5,-21.12 -21.12,-21.12l-36.26 0c-11.66,0 -21.12,9.5 -21.12,21.12 0,7.39 3.81,13.91 9.55,17.67 -5.74,3.76 -9.55,10.28 -9.55,17.67 0,7.39 3.81,13.91 9.55,17.67 -5.74,3.76 -9.55,10.28 -9.55,17.67 0,11.66 9.55,21.12 21.25,21.12 11.84,0 21.48,-9.59 21.48,-21.35l0 -19.51c3.76,3.4 8.77,5.51 14.23,5.51l0.46 0c11.66,0 21.12,-9.5 21.12,-21.12 -0.05,-7.39 -3.86,-13.91 -9.59,-17.67zm-33.14 52.79c0,7.94 -6.52,14.46 -14.55,14.46 -7.9,0 -14.32,-6.38 -14.32,-14.23 0,-7.85 6.38,-14.18 14.18,-14.23l14.69 0 0 14zm0 -20.89l-14.69 0c-7.85,0 -14.18,-6.38 -14.18,-14.23 0,-7.85 6.38,-14.23 14.23,-14.23l14.69 0 0 28.46 -0.05 0zm0 -35.35l-14.69 0c-7.85,0 -14.23,-6.38 -14.23,-14.23 0,-7.85 6.38,-14.23 14.23,-14.23l14.69 0 0 28.46zm6.89 -28.46l14.69 0c7.85,0 14.23,6.38 14.23,14.23 0,7.85 -6.38,14.23 -14.23,14.23l-14.69 0 0 -28.46zm14.69 63.81l-0.46 0c-7.85,0 -14.23,-6.38 -14.23,-14.23 0,-7.85 6.38,-14.23 14.23,-14.23l0.46 0c7.85,0 14.23,6.38 14.23,14.23 0,7.85 -6.38,14.23 -14.23,14.23z"/>
 </g>
</svg>
