<?xml version="1.0" encoding="UTF-8"?>
<!DOCTYPE svg PUBLIC "-//W3C//DTD SVG 1.1//EN" "http://www.w3.org/Graphics/SVG/1.1/DTD/svg11.dtd">
<!-- Creator: CorelDRAW 2019 (64-Bit) -->
<svg xmlns="http://www.w3.org/2000/svg" xml:space="preserve" width="180px" height="188px" version="1.1" style="shape-rendering:geometricPrecision; text-rendering:geometricPrecision; image-rendering:optimizeQuality; fill-rule:evenodd; clip-rule:evenodd"
viewBox="0 0 12.37 12.92"
 xmlns:xlink="http://www.w3.org/1999/xlink">
 <defs>
  <style type="text/css">
   <![CDATA[
    .fil0 {fill:#EEEEEE}
   ]]>
  </style>
 </defs>
 <g id="Capa_x0020_1">
  <metadata id="CorelCorpID_0Corel-Layer"/>
  <path class="fil0" d="M6.52 6.13c-0.17,0.15 -0.34,0.29 -0.5,0.43l-0.59 0.5 -0.1 -0.53c-0.03,-0.17 -0.12,-0.6 -0.18,-0.91 -0.02,-0.16 -0.05,-0.33 -0.08,-0.47 -0.01,-0.07 -0.02,-0.13 -0.03,-0.18 0,-0.05 -0.01,-0.09 -0.01,-0.12l-0.03 -0.18 0.55 -0.49c0,0 0.01,-0.01 0.02,-0.01 0.03,-0.03 0.06,-0.06 0.1,-0.09 1.58,-1.3 3.74,-2.83 4.83,-3.4 0.51,-0.26 0.87,-0.39 1.4,-0.59 0.54,-0.2 0.49,0.26 -0.42,1.17 -1.6,1.62 -4.78,4.72 -4.96,4.87zm2.36 -4.53c-1.08,0.72 -2.17,1.53 -3.14,2.33 -0.11,0.09 -0.21,0.17 -0.3,0.24 -0.01,0.01 -0.01,0.01 -0.02,0.02l-0.44 0.38 -0.09 -0.52c0,-0.03 0,-0.07 -0.01,-0.1 0,-0.01 0,-0.03 0,-0.04 -0.11,-0.79 -0.42,-2.59 -0.53,-2.95 -0.05,-0.22 -0.13,-0.37 -0.16,-0.35 -0.03,0.01 -0.03,0.1 0.01,0.19 0.13,0.34 0.46,2.77 0.46,3.37l0 0.67 -0.32 0.28 -1.17 1.13c-1.52,1.53 -2.3,2.49 -2.77,3.3 -0.54,0.93 -0.54,1.31 0.02,1.59 0.41,0.22 1.29,0.22 1.97,0.01 0.86,-0.27 2.7,-1.22 3.22,-1.67l0.19 -0.11 0.25 1.09c0.02,0.06 0.03,0.12 0.05,0.19 0.3,1.27 0.59,2.24 0.67,2.27 0.12,0.04 0.1,-0.1 -0.08,-0.55 -0.08,-0.21 -0.28,-0.93 -0.45,-1.62 -0.01,-0.03 -0.02,-0.07 -0.03,-0.11 -0.16,-0.62 -0.32,-1.24 -0.32,-1.34l1.69 -1.23c0.03,-0.02 0.05,-0.04 0.08,-0.06 1.12,-0.8 2.35,-1.71 2.58,-1.9 0.24,-0.2 0.47,-0.36 0.52,-0.36 0.04,0 0.08,-0.04 0.08,-0.1 0,-0.05 -0.02,-0.1 -0.04,-0.1 -0.04,0 -0.34,0.24 -0.7,0.52 -0.35,0.28 -1.02,0.79 -1.49,1.13 -0.3,0.21 -0.73,0.52 -1.14,0.81 -0.02,0.01 -0.04,0.03 -0.06,0.04 -0.21,0.15 -0.42,0.3 -0.59,0.42l-0.96 0.7 -0.13 -0.53c-0.1,-0.47 -0.19,-0.97 -0.28,-1.46l0.77 -0.66c0.23,-0.2 0.46,-0.4 0.65,-0.57 0.17,-0.14 0.3,-0.26 0.35,-0.31 0.11,-0.11 0.56,-0.5 1,-0.89 0.79,-0.7 2.32,-2.25 3.16,-3.19 0.43,-0.47 0.97,-1.2 0.99,-1.32 0.01,-0.17 -0.14,-0.32 -0.48,-0.2 -1.16,0.41 -1.99,0.88 -3.01,1.56zm-3.99 3.05l-0.14 0.12 0.01 -0.81 0.13 0.69zm0.02 0.1l0.11 0.64c0.01,0.04 0.01,0.07 0.02,0.11 0.1,0.56 0.17,1.08 0.29,1.64l-0.3 0.26 -0.27 0.22 -0.02 -1.31c0,-0.34 0,-0.66 0,-0.91 0,-0.01 0,-0.02 0,-0.03l0.01 -0.48 0.16 -0.14zm-0.28 0.88c-0.02,0.34 -0.04,0.95 -0.04,1.37 0,0.73 0,0.76 -0.17,0.93 -0.55,0.5 -1.51,1.08 -1.81,1.08 -0.1,0 -0.14,0.03 -0.12,0.08 0.06,0.19 0.69,-0.09 1.44,-0.64 0.29,-0.2 0.52,-0.33 0.54,-0.29 0.07,0.11 0.19,0 0.2,-0.17 0,-0.06 0.12,-0.21 0.26,-0.35 0.01,-0.01 0.01,-0.02 0.02,-0.03l0.41 -0.35 0.12 0.77c0.01,0.04 0.02,0.09 0.03,0.13l0.26 1.08 -1.41 0.88c-0.02,0.01 -0.04,0.02 -0.06,0.03 -0.63,0.35 -1.34,0.69 -1.83,0.85 -0.83,0.28 -1.75,0.25 -2.16,-0.07 -0.47,-0.37 0.08,-1.47 1.59,-3.22 0.51,-0.58 1.79,-1.92 2.41,-2.44l0.34 -0.28 0 0.46c0,0.05 -0.01,0.12 -0.02,0.18l0 0z"/>
 </g>
</svg>
