<?xml version="1.0" encoding="UTF-8"?>
<!DOCTYPE svg PUBLIC "-//W3C//DTD SVG 1.1//EN" "http://www.w3.org/Graphics/SVG/1.1/DTD/svg11.dtd">
<!-- Creator: CorelDRAW 2019 (64-Bit) -->
<svg xmlns="http://www.w3.org/2000/svg" xml:space="preserve" width="140px" height="146px" version="1.1" style="shape-rendering:geometricPrecision; text-rendering:geometricPrecision; image-rendering:optimizeQuality; fill-rule:evenodd; clip-rule:evenodd"
viewBox="0 0 28.06 29.32"
 xmlns:xlink="http://www.w3.org/1999/xlink">
 <defs>
  <style type="text/css">
   <![CDATA[
    .fil0 {fill:#76ABAE}
   ]]>
  </style>
 </defs>
 <g id="Capa_x0020_1">
  <metadata id="CorelCorpID_0Corel-Layer"/>
  <path class="fil0" d="M14.79 13.91c-0.38,0.34 -0.76,0.66 -1.14,0.98l-1.34 1.13 -0.22 -1.21c-0.08,-0.39 -0.28,-1.35 -0.4,-2.06 -0.06,-0.36 -0.13,-0.75 -0.18,-1.07 -0.03,-0.15 -0.05,-0.29 -0.07,-0.41 -0.02,-0.11 -0.03,-0.21 -0.04,-0.27l-0.06 -0.4 1.24 -1.11c0.02,-0.01 0.03,-0.02 0.05,-0.04 0.07,-0.06 0.15,-0.13 0.24,-0.2 3.57,-2.95 8.47,-6.4 10.94,-7.7 1.16,-0.61 1.97,-0.9 3.19,-1.35 1.21,-0.44 1.1,0.59 -0.95,2.65 -3.64,3.68 -10.85,10.71 -11.26,11.06zm5.36 -10.28c-2.44,1.63 -4.93,3.47 -7.13,5.29 -0.24,0.2 -0.46,0.38 -0.67,0.54 -0.02,0.02 -0.04,0.03 -0.06,0.05l-0.99 0.85 -0.2 -1.18c-0.01,-0.07 -0.01,-0.14 -0.02,-0.22 -0.01,-0.03 -0.01,-0.06 -0.02,-0.08 -0.23,-1.81 -0.95,-5.89 -1.19,-6.71 -0.13,-0.48 -0.29,-0.83 -0.37,-0.79 -0.06,0.03 -0.06,0.23 0.02,0.43 0.3,0.78 1.05,6.28 1.05,7.64l0 1.53 -0.72 0.64 -2.66 2.56c-3.45,3.46 -5.21,5.66 -6.28,7.48 -1.22,2.11 -1.22,2.97 0.05,3.62 0.92,0.48 2.92,0.48 4.46,0.01 1.94,-0.6 6.13,-2.77 7.31,-3.78l0.42 -0.26 0.57 2.48c0.04,0.14 0.07,0.28 0.11,0.42 0.7,2.9 1.35,5.08 1.54,5.15 0.27,0.09 0.22,-0.22 -0.18,-1.23 -0.19,-0.48 -0.65,-2.12 -1.04,-3.68 -0.02,-0.08 -0.04,-0.16 -0.06,-0.25 -0.36,-1.4 -0.73,-2.81 -0.73,-3.04l3.83 -2.79c0.07,-0.04 0.13,-0.09 0.19,-0.13 2.53,-1.83 5.33,-3.89 5.86,-4.31 0.53,-0.46 1.05,-0.82 1.16,-0.82 0.1,0 0.19,-0.1 0.19,-0.22 0,-0.12 -0.04,-0.23 -0.1,-0.23 -0.08,0 -0.77,0.53 -1.57,1.18 -0.8,0.63 -2.32,1.78 -3.39,2.54 -0.68,0.48 -1.66,1.18 -2.58,1.84 -0.05,0.04 -0.09,0.07 -0.14,0.1 -0.48,0.35 -0.95,0.68 -1.34,0.96l-2.17 1.59 -0.3 -1.2c-0.23,-1.09 -0.43,-2.22 -0.64,-3.32l1.74 -1.49c0.53,-0.45 1.06,-0.92 1.49,-1.29 0.38,-0.34 0.67,-0.6 0.79,-0.71 0.25,-0.25 1.26,-1.15 2.26,-2.02 1.81,-1.6 5.28,-5.1 7.18,-7.24 0.96,-1.07 2.2,-2.73 2.24,-3 0.03,-0.38 -0.31,-0.72 -1.1,-0.44 -2.61,0.92 -4.49,1.99 -6.81,3.53zm-9.06 6.91l-0.31 0.27 0.01 -1.83 0.3 1.56zm0.04 0.24l0.26 1.46c0.01,0.07 0.03,0.16 0.04,0.24 0.22,1.27 0.39,2.46 0.67,3.72l-0.7 0.58 -0.6 0.51 -0.04 -2.97c-0.01,-0.77 -0.01,-1.5 -0.01,-2.06 0,-0.03 0,-0.05 0,-0.08l0.03 -1.09 0.35 -0.31zm-0.62 2c-0.04,0.75 -0.09,2.14 -0.09,3.09 0,1.67 -0.01,1.74 -0.4,2.11 -1.24,1.15 -3.41,2.46 -4.09,2.46 -0.23,0 -0.33,0.07 -0.29,0.18 0.14,0.42 1.57,-0.21 3.28,-1.45 0.66,-0.46 1.17,-0.75 1.22,-0.66 0.15,0.24 0.43,0 0.45,-0.38 0,-0.14 0.28,-0.49 0.59,-0.81 0.02,-0.02 0.04,-0.03 0.06,-0.05l0.91 -0.8 0.29 1.75c0.02,0.1 0.05,0.19 0.07,0.29l0.57 2.44 -3.19 2.01c-0.04,0.03 -0.08,0.05 -0.13,0.07 -1.43,0.79 -3.04,1.56 -4.16,1.93 -1.87,0.64 -3.97,0.56 -4.89,-0.16 -1.07,-0.85 0.17,-3.35 3.61,-7.3 1.14,-1.32 4.06,-4.37 5.47,-5.55l0.75 -0.64 0 1.05c0,0.13 -0.01,0.27 -0.03,0.42l0 0z"/>
 </g>
</svg>
