<?xml version="1.0" encoding="UTF-8"?>
<!DOCTYPE svg PUBLIC "-//W3C//DTD SVG 1.1//EN" "http://www.w3.org/Graphics/SVG/1.1/DTD/svg11.dtd">
<!-- Creator: CorelDRAW 2019 (64-Bit) -->
<svg xmlns="http://www.w3.org/2000/svg" xml:space="preserve" width="26.4894mm" height="26.4895mm" version="1.1" style="shape-rendering:geometricPrecision; text-rendering:geometricPrecision; image-rendering:optimizeQuality; fill-rule:evenodd; clip-rule:evenodd"
viewBox="0 0 207.64 207.64"
 xmlns:xlink="http://www.w3.org/1999/xlink">
 <defs>
  <style type="text/css">
   <![CDATA[
    .fil0 {fill:#EEEEEE}
   ]]>
  </style>
 </defs>
 <g id="Capa_x0020_1">
  <metadata id="CorelCorpID_0Corel-Layer"/>
  <path class="fil0" d="M4.34 114.3c-5.79,-5.79 -5.79,-15.17 0,-20.96l89 -89c5.79,-5.79 15.17,-5.79 20.96,0l89 89c5.79,5.79 5.79,15.17 0,20.96l-89 89c-5.79,5.79 -15.17,5.79 -20.96,0l-89 -89zm70.92 -91.6l-9.01 9.01 23.28 23.28c-0.94,2.02 -1.47,4.27 -1.47,6.65 0,6.75 4.24,12.5 10.2,14.75l0 56.94c-5.96,2.25 -10.2,8 -10.2,14.75 0,8.7 7.06,15.76 15.76,15.76 8.7,0 15.76,-7.06 15.76,-15.76 0,-6.11 -3.48,-11.42 -8.57,-14.03l0 -57.58 22.25 22.25c-0.9,1.98 -1.39,4.18 -1.39,6.49 0,8.7 7.05,15.76 15.76,15.76 8.7,0 15.76,-7.06 15.76,-15.76 0,-8.7 -7.05,-15.76 -15.76,-15.76 -1.69,0 -3.32,0.27 -4.85,0.76l-23.9 -23.9c0.46,-1.48 0.7,-3.04 0.7,-4.67 0,-8.7 -7.06,-15.76 -15.76,-15.76 -1.63,0 -3.19,0.25 -4.67,0.7l-23.89 -23.89z"/>
 </g>
</svg>
