<?xml version="1.0" encoding="UTF-8"?>
<!DOCTYPE svg PUBLIC "-//W3C//DTD SVG 1.1//EN" "http://www.w3.org/Graphics/SVG/1.1/DTD/svg11.dtd">
<!-- Creator: CorelDRAW 2019 (64-Bit) -->
<svg xmlns="http://www.w3.org/2000/svg" xml:space="preserve" width="50px" height="50px" version="1.1" style="shape-rendering:geometricPrecision; text-rendering:geometricPrecision; image-rendering:optimizeQuality; fill-rule:evenodd; clip-rule:evenodd"
viewBox="0 0 3.26 3.26"
 xmlns:xlink="http://www.w3.org/1999/xlink">
 <defs>
  <style type="text/css">
   <![CDATA[
    .fil0 {fill:#76ABAE}
   ]]>
  </style>
 </defs>
 <g id="Capa_x0020_1">
  <metadata id="CorelCorpID_0Corel-Layer"/>
  <path class="fil0" d="M0.07 1.79c-0.09,-0.09 -0.09,-0.24 0,-0.33l1.39 -1.39c0.09,-0.09 0.24,-0.09 0.33,0l1.4 1.39c0.09,0.09 0.09,0.24 0,0.33l-1.4 1.4c-0.09,0.09 -0.24,0.09 -0.33,0l-1.39 -1.4zm1.11 -1.43l-0.14 0.14 0.36 0.36c-0.01,0.03 -0.02,0.07 -0.02,0.11 0,0.1 0.07,0.19 0.16,0.23l0 0.89c-0.09,0.04 -0.16,0.13 -0.16,0.23 0,0.14 0.11,0.25 0.25,0.25 0.13,0 0.25,-0.11 0.25,-0.25 0,-0.09 -0.06,-0.18 -0.14,-0.22l0 -0.9 0.35 0.35c-0.01,0.03 -0.02,0.06 -0.02,0.1 0,0.14 0.11,0.25 0.25,0.25 0.13,0 0.24,-0.11 0.24,-0.25 0,-0.14 -0.11,-0.25 -0.24,-0.25 -0.03,0 -0.06,0.01 -0.08,0.01l-0.38 -0.37c0.01,-0.02 0.02,-0.05 0.02,-0.07 0,-0.14 -0.12,-0.25 -0.25,-0.25 -0.03,0 -0.05,0 -0.07,0.01l-0.38 -0.37z"/>
 </g>
</svg>
