<?xml version="1.0" encoding="UTF-8"?>
<!DOCTYPE svg PUBLIC "-//W3C//DTD SVG 1.1//EN" "http://www.w3.org/Graphics/SVG/1.1/DTD/svg11.dtd">
<!-- Creator: CorelDRAW 2019 (64-Bit) -->
<svg xmlns="http://www.w3.org/2000/svg" xml:space="preserve" width="23.7169mm" height="23.1323mm" version="1.1" style="shape-rendering:geometricPrecision; text-rendering:geometricPrecision; image-rendering:optimizeQuality; fill-rule:evenodd; clip-rule:evenodd"
viewBox="0 0 87.68 85.52"
 xmlns:xlink="http://www.w3.org/1999/xlink">
 <defs>
  <style type="text/css">
   <![CDATA[
    .fil0 {fill:#EEEEEE}
   ]]>
  </style>
 </defs>
 <g id="Capa_x0020_1">
  <metadata id="CorelCorpID_0Corel-Layer"/>
  <path id="github-svgrepo-com.svg" class="fil0" d="M43.84 0c-24.22,0 -43.84,19.62 -43.84,43.84 0,19.4 12.55,35.78 29.97,41.59 2.19,0.38 3.01,-0.93 3.01,-2.08 0,-1.04 -0.06,-4.49 -0.06,-8.16 -11.01,2.03 -13.86,-2.69 -14.74,-5.15 -0.49,-1.26 -2.63,-5.15 -4.49,-6.19 -1.53,-0.82 -3.73,-2.85 -0.05,-2.9 3.45,-0.05 5.92,3.18 6.74,4.49 3.95,6.63 10.25,4.77 12.77,3.62 0.38,-2.85 1.53,-4.77 2.79,-5.86 -9.75,-1.1 -19.95,-4.88 -19.95,-21.65 0,-4.77 1.7,-8.71 4.49,-11.78 -0.44,-1.1 -1.97,-5.59 0.44,-11.62 0,0 3.67,-1.15 12.06,4.49 3.51,-0.99 7.23,-1.48 10.96,-1.48 3.73,0 7.45,0.49 10.96,1.48 8.38,-5.7 12.06,-4.49 12.06,-4.49 2.41,6.03 0.88,10.52 0.44,11.62 2.79,3.07 4.49,6.96 4.49,11.78 0,16.82 -10.25,20.55 -20,21.65 1.59,1.37 2.96,4 2.96,8.11 0,5.86 -0.05,10.58 -0.05,12.06 0,1.15 0.82,2.52 3.01,2.08 17.84,-6.02 29.87,-22.76 29.87,-41.59 0,-24.22 -19.62,-43.84 -43.84,-43.84l0 0z"/>
 </g>
</svg>
