<?xml version="1.0" encoding="UTF-8"?>
<!DOCTYPE svg PUBLIC "-//W3C//DTD SVG 1.1//EN" "http://www.w3.org/Graphics/SVG/1.1/DTD/svg11.dtd">
<!-- Creator: CorelDRAW 2019 (64-Bit) -->
<svg xmlns="http://www.w3.org/2000/svg" xml:space="preserve" width="80px" height="94px" version="1.1" style="shape-rendering:geometricPrecision; text-rendering:geometricPrecision; image-rendering:optimizeQuality; fill-rule:evenodd; clip-rule:evenodd"
viewBox="0 0 2.94 3.45"
 xmlns:xlink="http://www.w3.org/1999/xlink">
 <defs>
  <style type="text/css">
   <![CDATA[
    .fil0 {fill:#76ABAE;fill-rule:nonzero}
   ]]>
  </style>
 </defs>
 <g id="Capa_x0020_1">
  <metadata id="CorelCorpID_0Corel-Layer"/>
  <path id="html-16-svgrepo-com.svg" class="fil0" d="M0.38 0.33c-0.03,0 -0.05,0.02 -0.05,0.05l0 2.08c0,0.02 0.01,0.04 0.02,0.05l1.06 0.61c0.02,0.01 0.04,0.01 0.05,0l1.12 -0.62c0.02,-0.01 0.03,-0.02 0.03,-0.04l0 -2.08c0,-0.03 -0.02,-0.05 -0.05,-0.05l-2.18 0zm-0.38 0.05c0,-0.21 0.17,-0.38 0.38,-0.38l2.18 0c0.21,0 0.38,0.17 0.38,0.38l0 2.08c0,0.13 -0.08,0.26 -0.2,0.33l-1.12 0.61c-0.12,0.07 -0.26,0.07 -0.37,0l-1.06 -0.61c-0.12,-0.07 -0.19,-0.19 -0.19,-0.33l0 -2.08zm0.82 0.54c0,-0.09 0.07,-0.16 0.16,-0.16l1 0c0.09,0 0.17,0.07 0.17,0.16 0,0.09 -0.08,0.17 -0.17,0.17l-0.84 0 0 0.37 0.84 0c0.09,0 0.17,0.07 0.17,0.16l0 0.63c0,0.06 -0.04,0.12 -0.09,0.15l-0.51 0.25c-0.04,0.02 -0.1,0.02 -0.14,0l-0.5 -0.25c-0.06,-0.03 -0.09,-0.09 -0.09,-0.15l0 -0.12c0,-0.09 0.07,-0.17 0.16,-0.17 0.09,0 0.16,0.08 0.16,0.17l0 0.02 0.34 0.17 0.34 -0.17 0 -0.36 -0.84 0c-0.09,0 -0.16,-0.08 -0.16,-0.17l0 -0.7z"/>
 </g>
</svg>
