<?xml version="1.0" encoding="UTF-8"?>
<!DOCTYPE svg PUBLIC "-//W3C//DTD SVG 1.1//EN" "http://www.w3.org/Graphics/SVG/1.1/DTD/svg11.dtd">
<!-- Creator: CorelDRAW 2019 (64-Bit) -->
<svg xmlns="http://www.w3.org/2000/svg" xml:space="preserve" width="80px" height="94px" version="1.1" style="shape-rendering:geometricPrecision; text-rendering:geometricPrecision; image-rendering:optimizeQuality; fill-rule:evenodd; clip-rule:evenodd"
viewBox="0 0 3.26 3.82"
 xmlns:xlink="http://www.w3.org/1999/xlink">
 <defs>
  <style type="text/css">
   <![CDATA[
    .fil0 {fill:#EEEEEE;fill-rule:nonzero}
   ]]>
  </style>
 </defs>
 <g id="Capa_x0020_1">
  <metadata id="CorelCorpID_0Corel-Layer"/>
  <path id="html-16-svgrepo-com.svg" class="fil0" d="M0.42 0.36c-0.03,0 -0.06,0.03 -0.06,0.06l0 2.31c0,0.02 0.01,0.04 0.03,0.05l1.17 0.67c0.02,0.01 0.04,0.01 0.06,0l1.24 -0.68c0.02,-0.01 0.03,-0.03 0.03,-0.05l0 -2.3c0,-0.03 -0.02,-0.06 -0.06,-0.06l-2.41 0zm-0.42 0.06c0,-0.23 0.19,-0.42 0.42,-0.42l2.41 0c0.24,0 0.43,0.19 0.43,0.42l0 2.3c0,0.16 -0.09,0.3 -0.22,0.37l-1.24 0.68c-0.13,0.07 -0.29,0.07 -0.42,0l-1.17 -0.68c-0.13,-0.07 -0.21,-0.21 -0.21,-0.36l0 -2.31zm0.9 0.61c0,-0.1 0.09,-0.19 0.19,-0.19l1.11 0c0.1,0 0.18,0.09 0.18,0.19 0,0.1 -0.08,0.18 -0.18,0.18l-0.93 0 0 0.41 0.93 0c0.1,0 0.18,0.08 0.18,0.18l0 0.7c0,0.06 -0.04,0.13 -0.1,0.16l-0.56 0.28c-0.05,0.02 -0.11,0.02 -0.16,0l-0.56 -0.28c-0.06,-0.03 -0.1,-0.1 -0.1,-0.16l0 -0.14c0,-0.1 0.09,-0.18 0.19,-0.18 0.1,0 0.18,0.08 0.18,0.18l0 0.02 0.37 0.19 0.38 -0.19 0 -0.4 -0.93 0c-0.1,0 -0.19,-0.08 -0.19,-0.18l0 -0.77z"/>
 </g>
</svg>
