<?xml version="1.0" encoding="UTF-8"?>
<!DOCTYPE svg PUBLIC "-//W3C//DTD SVG 1.1//EN" "http://www.w3.org/Graphics/SVG/1.1/DTD/svg11.dtd">
<!-- Creator: CorelDRAW 2019 (64-Bit) -->
<svg xmlns="http://www.w3.org/2000/svg" xml:space="preserve" width="111px" height="99px" version="1.1" style="shape-rendering:geometricPrecision; text-rendering:geometricPrecision; image-rendering:optimizeQuality; fill-rule:evenodd; clip-rule:evenodd"
viewBox="0 0 92.82 82.81"
 xmlns:xlink="http://www.w3.org/1999/xlink">
 <defs>
  <style type="text/css">
   <![CDATA[
    .fil0 {fill:#76ABAE}
   ]]>
  </style>
 </defs>
 <g id="Capa_x0020_1">
  <metadata id="CorelCorpID_0Corel-Layer"/>
  <g id="_1597435189648">
   <path class="fil0" d="M7.66 82.81l77.43 0c3.08,0 5.66,-2.33 6.77,-4.41 1.32,-2.46 0.89,-6.78 0.89,-10.28 0,-7.53 0,-15.05 0,-22.57 -1.18,0.79 -1.99,2.44 -5.8,4.14 -2.3,1.03 -5.15,1.66 -8.48,1.66l-20.5 0c0,3.52 -1.06,6.62 -5.38,6.62l-12.42 0c-4.41,0 -5.39,-3.11 -5.39,-6.62l-20.49 0c-4.39,0 -8.3,-1.08 -11.51,-3.4 -0.54,-0.39 -0.93,-0.66 -1.39,-1.1 -0.52,-0.51 -0.81,-0.92 -1.39,-1.3l0 27.95c0,2.33 0.02,3.21 0.82,4.77 1.09,2.11 3.69,4.54 6.84,4.54z"/>
   <path class="fil0" d="M0 24.22l0 15.32c0,1.72 3.12,4.77 4.59,5.76 1.78,1.21 4.73,2.73 7.63,2.73l22.56 0c0,-3.51 0.98,-6.62 5.39,-6.62l12.42 0c4.4,0 5.38,3.11 5.38,6.62l22.57 0c3.83,0 6.53,-1.94 8.99,-3.84 0.88,-0.68 0.66,-0.63 1.31,-1.38 0.57,-0.65 1.91,-2.23 1.91,-3.27l0 -15.32c0,-3.82 -3.84,-7.66 -7.66,-7.66l-77.43 0c-3.82,0 -7.66,3.84 -7.66,7.66z"/>
   <path class="fil0" d="M23.19 10.97l0 2.28 9.94 0c0,-1.1 -0.24,-3.31 1.86,-3.31l22.77 0c2.11,0 1.87,2.21 1.87,3.31l9.94 0 0 -2.28c0,-5.64 -5.34,-10.97 -10.98,-10.97l-24.43 0c-5.64,0 -10.97,5.33 -10.97,10.97z"/>
   <path class="fil0" d="M38.1 46.38l0 6.62c0,1 0.65,1.66 1.65,1.66l13.25 0c1,0 1.66,-0.66 1.66,-1.66l0 -6.62c0,-1 -0.66,-1.66 -1.66,-1.66l-13.25 0c-1,0 -1.65,0.66 -1.65,1.66z"/>
  </g>
 </g>
</svg>
