<?xml version="1.0" encoding="UTF-8"?>
<!DOCTYPE svg PUBLIC "-//W3C//DTD SVG 1.1//EN" "http://www.w3.org/Graphics/SVG/1.1/DTD/svg11.dtd">
<!-- Creator: CorelDRAW 2019 (64-Bit) -->
<svg xmlns="http://www.w3.org/2000/svg" xml:space="preserve" width="23.5301mm" height="23.5303mm" version="1.1" style="shape-rendering:geometricPrecision; text-rendering:geometricPrecision; image-rendering:optimizeQuality; fill-rule:evenodd; clip-rule:evenodd"
viewBox="0 0 86.14 86.14"
 xmlns:xlink="http://www.w3.org/1999/xlink"
 role="img">
 <defs>
  <style type="text/css">
   <![CDATA[
    .fil0 {fill:#EEEEEE}
   ]]>
  </style>
 </defs>
 <g id="Capa_x0020_1">
  <metadata id="CorelCorpID_0Corel-Layer"/>
  <g id="instagram.svg">
   <g>
    <path class="fil0" d="M25.23 0.3c-4.58,0.22 -7.71,0.95 -10.45,2.02 -2.83,1.1 -5.23,2.58 -7.62,4.98 -2.39,2.4 -3.86,4.8 -4.95,7.63 -1.06,2.74 -1.78,5.87 -1.98,10.46 -0.2,4.59 -0.25,6.06 -0.22,17.76 0.02,11.7 0.07,13.16 0.3,17.76 0.22,4.58 0.95,7.71 2.02,10.45 1.11,2.83 2.58,5.23 4.98,7.62 2.4,2.39 4.8,3.86 7.64,4.95 2.74,1.06 5.87,1.78 10.46,1.98 4.58,0.2 6.06,0.25 17.75,0.22 11.69,-0.02 13.17,-0.07 17.76,-0.29 4.59,-0.22 7.71,-0.95 10.44,-2.02 2.83,-1.11 5.23,-2.58 7.62,-4.98 2.39,-2.4 3.86,-4.8 4.95,-7.64 1.06,-2.74 1.78,-5.87 1.98,-10.45 0.2,-4.6 0.25,-6.06 0.23,-17.76 -0.02,-11.69 -0.08,-13.16 -0.29,-17.75 -0.22,-4.59 -0.95,-7.71 -2.02,-10.45 -1.11,-2.83 -2.58,-5.23 -4.98,-7.62 -2.4,-2.39 -4.8,-3.86 -7.64,-4.95 -2.74,-1.06 -5.87,-1.78 -10.46,-1.98 -4.58,-0.2 -6.06,-0.25 -17.76,-0.23 -11.7,0.02 -13.16,0.07 -17.75,0.3l0 0zm0.5 77.86c-4.2,-0.18 -6.48,-0.88 -8,-1.46 -2.01,-0.78 -3.45,-1.71 -4.96,-3.21 -1.51,-1.5 -2.44,-2.94 -3.23,-4.95 -0.59,-1.52 -1.3,-3.8 -1.5,-8 -0.21,-4.54 -0.26,-5.9 -0.28,-17.4 -0.02,-11.5 0.02,-12.86 0.22,-17.4 0.18,-4.2 0.88,-6.48 1.46,-8 0.77,-2.01 1.71,-3.45 3.21,-4.96 1.5,-1.51 2.94,-2.45 4.95,-3.23 1.52,-0.59 3.8,-1.3 7.99,-1.5 4.54,-0.22 5.9,-0.26 17.4,-0.28 11.5,-0.02 12.86,0.02 17.41,0.22 4.2,0.18 6.48,0.88 8,1.46 2.01,0.77 3.45,1.71 4.96,3.21 1.51,1.5 2.45,2.93 3.23,4.95 0.59,1.51 1.3,3.79 1.5,7.99 0.22,4.54 0.27,5.9 0.29,17.4 0.02,11.5 -0.02,12.86 -0.22,17.4 -0.18,4.2 -0.88,6.48 -1.46,8 -0.78,2.01 -1.71,3.45 -3.21,4.96 -1.5,1.51 -2.94,2.44 -4.95,3.23 -1.52,0.59 -3.8,1.3 -7.99,1.5 -4.54,0.21 -5.9,0.26 -17.41,0.28 -11.5,0.03 -12.86,-0.02 -17.4,-0.22l-0 0zm35.11 -58.11c0,2.85 2.32,5.16 5.17,5.16 2.85,0 5.17,-2.31 5.17,-5.17 0,-2.85 -2.31,-5.17 -5.17,-5.17 -0,0 -0.01,0 -0.01,0 -2.85,0.01 -5.16,2.32 -5.16,5.17 0,0 0,0.01 0,0.01l0 0zm-39.89 23.06c0.02,12.21 9.94,22.09 22.16,22.07 12.21,-0.02 22.1,-9.94 22.08,-22.16 -0.02,-12.21 -9.95,-22.1 -22.16,-22.07 -12.21,0.02 -22.09,9.95 -22.07,22.16l0 0zm7.76 -0.02c0,-0.01 0,-0.02 0,-0.03 0,-7.93 6.43,-14.36 14.36,-14.36 7.93,0 14.36,6.43 14.36,14.36 0,7.92 -6.41,14.34 -14.33,14.36 -0.01,0 -0.02,0 -0.03,0 -7.92,0 -14.34,-6.41 -14.36,-14.33l0 0zm0 0l0 0 0 0z"/>
   </g>
  </g>
 </g>
</svg>
