<?xml version="1.0" encoding="UTF-8"?>
<!DOCTYPE svg PUBLIC "-//W3C//DTD SVG 1.1//EN" "http://www.w3.org/Graphics/SVG/1.1/DTD/svg11.dtd">
<!-- Creator: CorelDRAW 2019 (64-Bit) -->
<svg xmlns="http://www.w3.org/2000/svg" xml:space="preserve" width="30px" height="30px" version="1.1" style="shape-rendering:geometricPrecision; text-rendering:geometricPrecision; image-rendering:optimizeQuality; fill-rule:evenodd; clip-rule:evenodd"
viewBox="0 0 1 1"
 xmlns:xlink="http://www.w3.org/1999/xlink"
 role="img">
 <defs>
  <style type="text/css">
   <![CDATA[
    .fil0 {fill:#76ABAE}
   ]]>
  </style>
 </defs>
 <g id="Capa_x0020_1">
  <metadata id="CorelCorpID_0Corel-Layer"/>
  <g id="instagram.svg">
   <g>
    <path class="fil0" d="M0.29 0c-0.05,0.01 -0.09,0.01 -0.12,0.03 -0.03,0.01 -0.06,0.03 -0.09,0.05 -0.02,0.03 -0.04,0.06 -0.05,0.09 -0.02,0.03 -0.02,0.07 -0.03,0.12 0,0.06 0,0.07 0,0.21 0,0.13 0,0.15 0,0.2 0.01,0.06 0.01,0.09 0.03,0.12 0.01,0.04 0.03,0.07 0.05,0.09 0.03,0.03 0.06,0.05 0.09,0.06 0.03,0.01 0.07,0.02 0.12,0.02 0.06,0.01 0.07,0.01 0.21,0.01 0.13,0 0.15,-0.01 0.2,-0.01 0.06,0 0.09,-0.01 0.12,-0.02 0.04,-0.01 0.07,-0.03 0.09,-0.06 0.03,-0.03 0.05,-0.05 0.06,-0.09 0.01,-0.03 0.02,-0.06 0.02,-0.12 0.01,-0.05 0.01,-0.07 0.01,-0.2 0,-0.14 -0.01,-0.16 -0.01,-0.21 0,-0.05 -0.01,-0.09 -0.02,-0.12 -0.01,-0.03 -0.03,-0.06 -0.06,-0.09 -0.03,-0.02 -0.05,-0.04 -0.09,-0.05 -0.03,-0.02 -0.06,-0.03 -0.12,-0.03 -0.05,0 -0.07,0 -0.2,0 -0.14,0 -0.16,0 -0.21,0l0 0zm0.01 0.9c-0.05,0 -0.08,-0.01 -0.09,-0.01 -0.03,-0.01 -0.04,-0.02 -0.06,-0.04 -0.02,-0.02 -0.03,-0.03 -0.04,-0.06 -0.01,-0.02 -0.01,-0.04 -0.02,-0.09 0,-0.05 0,-0.07 0,-0.2 0,-0.13 0,-0.15 0,-0.2 0,-0.05 0.01,-0.08 0.02,-0.09 0.01,-0.03 0.02,-0.04 0.04,-0.06 0.01,-0.02 0.03,-0.03 0.05,-0.04 0.02,-0.01 0.05,-0.01 0.1,-0.02 0.05,0 0.06,0 0.2,0 0.13,0 0.15,0 0.2,0 0.05,0 0.07,0.01 0.09,0.02 0.02,0.01 0.04,0.02 0.06,0.04 0.02,0.01 0.03,0.03 0.04,0.05 0,0.02 0.01,0.05 0.01,0.1 0.01,0.05 0.01,0.06 0.01,0.2 0,0.13 0,0.15 -0.01,0.2 0,0.05 -0.01,0.07 -0.01,0.09 -0.01,0.02 -0.02,0.04 -0.04,0.06 -0.02,0.02 -0.03,0.03 -0.06,0.04 -0.02,0 -0.04,0.01 -0.09,0.01 -0.05,0.01 -0.07,0.01 -0.2,0.01 -0.13,0 -0.15,0 -0.2,-0.01l0 0zm0.4 -0.67c0,0.03 0.03,0.06 0.06,0.06 0.04,0 0.06,-0.03 0.06,-0.06 0,-0.03 -0.02,-0.06 -0.06,-0.06 0,0 0,0 0,0 -0.03,0 -0.06,0.03 -0.06,0.06 0,0 0,0 0,0l0 0zm-0.46 0.27c0,0.14 0.12,0.25 0.26,0.25 0.14,0 0.25,-0.11 0.25,-0.25 0,-0.14 -0.11,-0.26 -0.25,-0.26 -0.14,0 -0.26,0.12 -0.26,0.26l0 0zm0.09 0c0,0 0,0 0,0 0,-0.09 0.08,-0.17 0.17,-0.17 0.09,0 0.16,0.08 0.16,0.17 0,0.09 -0.07,0.16 -0.16,0.16 0,0 0,0 0,0 -0.09,0 -0.17,-0.07 -0.17,-0.16l0 0zm0 0l0 0 0 0z"/>
   </g>
  </g>
 </g>
</svg>
