<?xml version="1.0" encoding="UTF-8"?>
<!DOCTYPE svg PUBLIC "-//W3C//DTD SVG 1.1//EN" "http://www.w3.org/Graphics/SVG/1.1/DTD/svg11.dtd">
<!-- Creator: CorelDRAW 2019 (64-Bit) -->
<svg xmlns="http://www.w3.org/2000/svg" xml:space="preserve" width="21.1229mm" height="21.1229mm" version="1.1" style="shape-rendering:geometricPrecision; text-rendering:geometricPrecision; image-rendering:optimizeQuality; fill-rule:evenodd; clip-rule:evenodd"
viewBox="0 0 90.63 90.63"
 xmlns:xlink="http://www.w3.org/1999/xlink">
 <defs>
  <style type="text/css">
   <![CDATA[
    .fil0 {fill:#EEEEEE;fill-rule:nonzero}
   ]]>
  </style>
 </defs>
 <g id="Capa_x0020_1">
  <metadata id="CorelCorpID_0Corel-Layer"/>
  <path id="javascript-16-svgrepo-com.svg" class="fil0" d="M-0 9.91c0,-5.47 4.44,-9.91 9.91,-9.91l70.81 0c5.47,0 9.91,4.44 9.91,9.91l0 11.33c0,2.35 -1.9,4.25 -4.25,4.25 -2.35,0 -4.25,-1.9 -4.25,-4.25l0 -11.33c0,-0.78 -0.63,-1.42 -1.42,-1.42l-70.81 0c-0.78,0 -1.42,0.63 -1.42,1.42l0 70.81c0,0.78 0.63,1.42 1.42,1.42l76.47 0c2.35,0 4.25,1.9 4.25,4.25 0,2.35 -1.9,4.25 -4.25,4.25l-76.47 0c-5.47,0 -9.91,-4.44 -9.91,-9.91l0 -70.81zm46.73 22.66c2.35,0 4.25,1.9 4.25,4.25l0 22.66c0,5.69 -1.56,9.96 -4.79,12.65 -3.08,2.56 -6.81,2.93 -9.38,2.93 -2.35,0 -4.25,-1.9 -4.25,-4.25 0,-2.35 1.9,-4.25 4.25,-4.25 1.96,0 3.19,-0.34 3.94,-0.96 0.6,-0.5 1.73,-1.9 1.73,-6.12l0 -22.66c0,-2.35 1.9,-4.25 4.25,-4.25zm17.14 4.7c2.37,-2.82 6.09,-4.7 11.18,-4.7 4.73,0 8.3,1.62 10.7,4.16 1.61,1.71 1.54,4.39 -0.17,6.01 -1.71,1.61 -4.39,1.54 -6.01,-0.17 -0.62,-0.66 -1.86,-1.5 -4.53,-1.5 -2.84,0 -4.07,0.95 -4.68,1.67 -0.74,0.88 -0.99,1.99 -0.99,2.58 0,0.59 0.25,1.7 0.99,2.58 0.6,0.72 1.84,1.67 4.68,1.67 0.43,0 0.84,0.06 1.23,0.18 3.76,0.53 6.59,2.21 8.53,4.52 2.23,2.66 2.98,5.8 2.98,8.04 0,2.24 -0.75,5.39 -2.98,8.04 -2.37,2.82 -6.09,4.7 -11.18,4.7 -4.73,0 -8.3,-1.62 -10.7,-4.16 -1.61,-1.7 -1.54,-4.39 0.17,-6.01 1.7,-1.61 4.39,-1.54 6.01,0.17 0.62,0.66 1.86,1.5 4.53,1.5 2.84,0 4.08,-0.95 4.68,-1.67 0.74,-0.88 0.99,-1.99 0.99,-2.58 0,-0.59 -0.25,-1.7 -0.99,-2.58 -0.6,-0.72 -1.84,-1.67 -4.68,-1.67 -0.43,0 -0.84,-0.06 -1.23,-0.18 -3.76,-0.53 -6.6,-2.21 -8.53,-4.52 -2.23,-2.66 -2.98,-5.8 -2.98,-8.04 0,-2.24 0.75,-5.39 2.98,-8.04z"/>
 </g>
</svg>
