<?xml version="1.0" encoding="UTF-8"?>
<!DOCTYPE svg PUBLIC "-//W3C//DTD SVG 1.1//EN" "http://www.w3.org/Graphics/SVG/1.1/DTD/svg11.dtd">
<!-- Creator: CorelDRAW 2019 (64-Bit) -->
<svg xmlns="http://www.w3.org/2000/svg" xml:space="preserve" width="80px" height="80px" version="1.1" style="shape-rendering:geometricPrecision; text-rendering:geometricPrecision; image-rendering:optimizeQuality; fill-rule:evenodd; clip-rule:evenodd"
viewBox="0 0 3.1 3.1"
 xmlns:xlink="http://www.w3.org/1999/xlink">
 <defs>
  <style type="text/css">
   <![CDATA[
    .fil0 {fill:#76ABAE;fill-rule:nonzero}
   ]]>
  </style>
 </defs>
 <g id="Capa_x0020_1">
  <metadata id="CorelCorpID_0Corel-Layer"/>
  <path id="javascript-16-svgrepo-com.svg" class="fil0" d="M0 0.34c0,-0.19 0.15,-0.34 0.34,-0.34l2.42 0c0.19,0 0.34,0.15 0.34,0.34l0 0.39c0,0.08 -0.07,0.14 -0.15,0.14 -0.08,0 -0.14,-0.06 -0.14,-0.14l0 -0.39c0,-0.03 -0.02,-0.05 -0.05,-0.05l-2.42 0c-0.03,0 -0.05,0.02 -0.05,0.05l0 2.42c0,0.03 0.02,0.05 0.05,0.05l2.61 0c0.08,0 0.15,0.06 0.15,0.14 0,0.08 -0.07,0.15 -0.15,0.15l-2.61 0c-0.19,0 -0.34,-0.15 -0.34,-0.34l0 -2.42zm1.6 0.77c0.08,0 0.14,0.07 0.14,0.15l0 0.77c0,0.2 -0.05,0.34 -0.16,0.43 -0.11,0.09 -0.23,0.1 -0.32,0.1 -0.08,0 -0.15,-0.06 -0.15,-0.14 0,-0.08 0.07,-0.15 0.15,-0.15 0.07,0 0.11,-0.01 0.13,-0.03 0.02,-0.02 0.06,-0.06 0.06,-0.21l0 -0.77c0,-0.08 0.07,-0.15 0.15,-0.15zm0.58 0.16c0.08,-0.09 0.21,-0.16 0.38,-0.16 0.17,0 0.29,0.06 0.37,0.15 0.06,0.05 0.05,0.15 -0.01,0.2 -0.05,0.06 -0.15,0.05 -0.2,-0.01 -0.02,-0.02 -0.06,-0.05 -0.16,-0.05 -0.09,0 -0.13,0.04 -0.15,0.06 -0.03,0.03 -0.04,0.07 -0.04,0.09 0,0.02 0.01,0.06 0.04,0.09 0.02,0.02 0.06,0.05 0.15,0.05 0.02,0 0.03,0.01 0.05,0.01 0.13,0.02 0.22,0.08 0.29,0.15 0.07,0.1 0.1,0.2 0.1,0.28 0,0.08 -0.03,0.18 -0.1,0.27 -0.08,0.1 -0.21,0.16 -0.38,0.16 -0.17,0 -0.29,-0.05 -0.37,-0.14 -0.05,-0.06 -0.05,-0.15 0.01,-0.2 0.05,-0.06 0.15,-0.06 0.2,0 0.02,0.03 0.07,0.05 0.16,0.05 0.09,0 0.14,-0.03 0.16,-0.05 0.02,-0.03 0.03,-0.07 0.03,-0.09 0,-0.02 -0.01,-0.06 -0.03,-0.09 -0.02,-0.02 -0.07,-0.06 -0.16,-0.06 -0.02,0 -0.03,0 -0.05,0 -0.12,-0.02 -0.22,-0.08 -0.29,-0.16 -0.07,-0.09 -0.1,-0.19 -0.1,-0.27 0,-0.08 0.03,-0.19 0.1,-0.28z"/>
 </g>
</svg>
