<?xml version="1.0" encoding="UTF-8"?>
<!DOCTYPE svg PUBLIC "-//W3C//DTD SVG 1.1//EN" "http://www.w3.org/Graphics/SVG/1.1/DTD/svg11.dtd">
<!-- Creator: CorelDRAW 2019 (64-Bit) -->
<svg xmlns="http://www.w3.org/2000/svg" xml:space="preserve" width="23.5301mm" height="23.5301mm" version="1.1" style="shape-rendering:geometricPrecision; text-rendering:geometricPrecision; image-rendering:optimizeQuality; fill-rule:evenodd; clip-rule:evenodd"
viewBox="0 0 86.41 86.41"
 xmlns:xlink="http://www.w3.org/1999/xlink"
 role="img">
 <defs>
  <style type="text/css">
   <![CDATA[
    .fil0 {fill:#EEEEEE}
   ]]>
  </style>
 </defs>
 <g id="Capa_x0020_1">
  <metadata id="CorelCorpID_0Corel-Layer"/>
  <g id="linkedin.svg">
   <path class="fil0" d="M73.61 73.63l-12.8 0 0 -20.05c0,-4.78 -0.1,-10.93 -6.67,-10.93 -6.67,0 -7.69,5.2 -7.69,10.58l0 20.4 -12.8 0 0 -41.23 12.29 0 0 5.62 0.17 -0c1.72,-3.24 5.89,-6.66 12.13,-6.66 12.96,0 15.36,8.53 15.36,19.64l0 22.63 -0 0zm-54.4 -46.87c-4.12,0 -7.43,-3.33 -7.43,-7.43 0,-4.1 3.31,-7.43 7.43,-7.43 4.1,0 7.43,3.33 7.43,7.43 0,4.1 -3.33,7.43 -7.43,7.43zm6.42 46.87l-12.83 0 0 -41.23 12.83 0 0 41.23zm54.39 -73.63l-73.64 0c-3.52,0 -6.38,2.79 -6.38,6.22l0 73.96c0,3.44 2.85,6.22 6.38,6.22l73.63 0c3.52,0 6.4,-2.78 6.4,-6.22l0 -73.96c0,-3.44 -2.88,-6.22 -6.4,-6.22l0.01 0z"/>
  </g>
 </g>
</svg>
