<?xml version="1.0" encoding="UTF-8"?>
<!DOCTYPE svg PUBLIC "-//W3C//DTD SVG 1.1//EN" "http://www.w3.org/Graphics/SVG/1.1/DTD/svg11.dtd">
<!-- Creator: CorelDRAW 2019 (64-Bit) -->
<svg xmlns="http://www.w3.org/2000/svg" xml:space="preserve" width="30px" height="30px" version="1.1" style="shape-rendering:geometricPrecision; text-rendering:geometricPrecision; image-rendering:optimizeQuality; fill-rule:evenodd; clip-rule:evenodd"
viewBox="0 0 1 1"
 xmlns:xlink="http://www.w3.org/1999/xlink"
 role="img">
 <defs>
  <style type="text/css">
   <![CDATA[
    .fil0 {fill:#76ABAE}
   ]]>
  </style>
 </defs>
 <g id="Capa_x0020_1">
  <metadata id="CorelCorpID_0Corel-Layer"/>
  <g id="linkedin.svg">
   <path class="fil0" d="M0.85 0.85l-0.15 0 0 -0.23c0,-0.06 0,-0.13 -0.07,-0.13 -0.08,0 -0.09,0.06 -0.09,0.13l0 0.23 -0.15 0 0 -0.48 0.14 0 0 0.07 0 0c0.02,-0.04 0.07,-0.08 0.14,-0.08 0.15,0 0.18,0.1 0.18,0.23l0 0.26 0 0zm-0.63 -0.54c-0.05,0 -0.08,-0.04 -0.08,-0.09 0,-0.04 0.03,-0.08 0.08,-0.08 0.05,0 0.09,0.04 0.09,0.08 0,0.05 -0.04,0.09 -0.09,0.09zm0.08 0.54l-0.15 0 0 -0.48 0.15 0 0 0.48zm0.62 -0.85l-0.85 0c-0.04,0 -0.07,0.03 -0.07,0.07l0 0.86c0,0.04 0.03,0.07 0.07,0.07l0.85 0c0.05,0 0.08,-0.03 0.08,-0.07l0 -0.86c0,-0.04 -0.03,-0.07 -0.08,-0.07l0 0z"/>
  </g>
 </g>
</svg>
