<?xml version="1.0" encoding="UTF-8"?>
<!DOCTYPE svg PUBLIC "-//W3C//DTD SVG 1.1//EN" "http://www.w3.org/Graphics/SVG/1.1/DTD/svg11.dtd">
<!-- Creator: CorelDRAW 2019 (64-Bit) -->
<svg xmlns="http://www.w3.org/2000/svg" xml:space="preserve" width="120px" height="121px" version="1.1" style="shape-rendering:geometricPrecision; text-rendering:geometricPrecision; image-rendering:optimizeQuality; fill-rule:evenodd; clip-rule:evenodd"
viewBox="0 0 310.34 312.28"
 xmlns:xlink="http://www.w3.org/1999/xlink">
 <defs>
  <style type="text/css">
   <![CDATA[
    .fil0 {fill:#EEEEEE}
    .fil1 {fill:#EEEEEE;fill-rule:nonzero}
   ]]>
  </style>
 </defs>
 <g id="Capa_x0020_1">
  <metadata id="CorelCorpID_0Corel-Layer"/>
  <g id="_2156720461200">
   <path class="fil0" d="M5.9 307.61l-1.07 -15.2c-1.24,4.64 -1.95,13.44 -1.09,18.34 25.09,0.01 50.54,1.27 75.96,1.35l230.64 0.18c-0.37,-51.71 -2.38,-103.21 -1.95,-154.93l-0.2 -115.18c-0.11,-7.27 0.39,-31.17 -3.31,-36.09 -2.97,21.65 -1.51,52.05 -1.52,74.82 0,24.85 -0.11,49.67 0.38,74.46 0.97,49.92 -0.26,100.82 -0.44,150.65l-297.4 1.6z"/>
   <path class="fil0" d="M4.8 260.43c2.58,-41.87 0.05,-84 0.49,-125.92 0.45,-42.77 -0.59,-85.57 -0.55,-128.32 25.07,0.02 50.94,0.26 75.95,-0.55 25.59,-0.82 48.7,-2.21 74.43,-1.72 20.9,0.4 141.42,2.84 152.62,-0.71 -11.29,-6.15 -129.41,-1.69 -151.59,-1.04 -26.08,0.77 -51.42,-0.03 -77.45,-0.87 -26.52,-0.85 -52.27,0.17 -78.7,0.15 -0.02,43.77 1.26,87.31 1.18,131.08 -0.02,10.72 1.28,20.94 1.25,31.77 -0.04,19.51 -1.49,85.55 2.37,96.13z"/>
  </g>
  <g id="_2156720460592">
   <polygon class="fil1" points="79.9,96.36 79.9,84.31 133.91,54.93 133.91,67.86 91.11,90.41 133.91,113.26 133.91,126.19 "/>
   <path id="brush-svgrepo-com.svg" class="fil0" d="M171.77 61.8c-1.39,5.22 -5.17,19.61 -8.17,31.04l-12.63 -4.82c4.64,-10.52 10.38,-23.52 12.47,-28.19 3.71,-8.31 7.67,-14.05 9.47,-13.26 1.07,0.4 1.29,6.08 -1.14,15.23zm-8.83 33.57c-1.17,4.42 -2.16,8.24 -2.77,10.57l-14.77 -5.29c0.98,-2.23 2.62,-5.95 4.52,-10.25l13.02 4.97 0 0zm-3.44 13.13l-0.02 -0.03c4.46,25.47 -27.87,24.42 -27.87,24.42 0,0 11.69,-3.65 6.98,-13.97 -4.56,-10 5.19,-15.54 5.79,-15.87l15.12 5.42c0.01,0 0,0.03 0,0.03l0 0z"/>
   <polygon class="fil1" points="230.45,96.36 230.45,84.31 176.43,54.93 176.43,67.86 219.23,90.41 176.43,113.26 176.43,126.19 "/>
  </g>
  <path class="fil1" d="M112.23 198.19c-3.18,6.64 -7.73,11.72 -13.64,15.2 -5.89,3.5 -12.87,5.25 -20.92,5.25 -5.21,0 -10.03,-0.74 -14.46,-2.22 -4.45,-1.48 -8.44,-3.67 -11.97,-6.55 -4.75,-3.83 -8.3,-8.3 -10.67,-13.41 -2.38,-5.12 -3.56,-10.77 -3.56,-16.99 0,-11.86 3.87,-21.56 11.58,-29.14 7.74,-7.56 17.67,-11.35 29.82,-11.35 6.98,0 13.06,1.4 18.25,4.18 5.17,2.8 9.66,7.11 13.48,12.94l-9.69 7.14c-2.31,-4.94 -5.15,-8.65 -8.47,-11.12 -3.34,-2.47 -7.15,-3.7 -11.45,-3.7 -6.57,0 -11.64,2.65 -15.26,7.96 -3.59,5.28 -5.4,12.77 -5.4,22.45 0,8.92 2.06,16.11 6.2,21.57 4.14,5.46 9.56,8.21 16.29,8.21 4.24,0 8.1,-1.38 11.6,-4.12 3.5,-2.77 6.55,-6.83 9.16,-12.23l9.11 5.93z"/>
  <polygon id="1" class="fil1" points="168.47,173.15 168.47,140.61 189.81,140.61 189.81,216.77 168.47,216.77 168.47,183.41 145.61,183.41 145.61,216.77 124.27,216.77 124.27,140.61 145.61,140.61 145.61,173.15 "/>
  <path id="2" class="fil1" d="M220.39 184.58l18.79 0 -9.85 -27.29 -8.94 27.29zm-21.7 32.19l26.15 -76.16 20.6 0 27.9 76.16 -22.67 0 -8.03 -22.51 -25.56 0 -7.56 22.51 -10.83 0z"/>
  <path class="fil1" d="M37.24 264.26l0 -21.9 7.54 0c1.71,0 3.01,0.1 3.9,0.31 1.26,0.29 2.33,0.81 3.22,1.57 1.15,0.98 2.01,2.22 2.59,3.74 0.57,1.52 0.86,3.26 0.86,5.21 0,1.66 -0.2,3.14 -0.58,4.42 -0.39,1.29 -0.89,2.35 -1.5,3.19 -0.61,0.84 -1.27,1.51 -2,1.99 -0.72,0.48 -1.59,0.85 -2.61,1.1 -1.02,0.25 -2.19,0.37 -3.52,0.37l-7.9 0zm2.9 -2.57l4.67 0c1.45,0 2.58,-0.13 3.4,-0.4 0.82,-0.27 1.47,-0.65 1.96,-1.14 0.68,-0.69 1.22,-1.62 1.6,-2.78 0.38,-1.16 0.58,-2.57 0.58,-4.22 0,-2.3 -0.38,-4.06 -1.13,-5.3 -0.75,-1.23 -1.66,-2.06 -2.74,-2.47 -0.77,-0.31 -2.02,-0.45 -3.74,-0.45l-4.6 0 0 16.76z"/>
  <path id="1" class="fil1" d="M68.17 245.42l0 -3.06 2.69 0 0 3.06 -2.69 0zm0 18.84l0 -15.88 2.69 0 0 15.88 -2.69 0z"/>
  <path id="2" class="fil1" d="M83.07 259.52l2.67 -0.43c0.14,1.06 0.56,1.88 1.24,2.45 0.69,0.57 1.65,0.85 2.87,0.85 1.24,0 2.16,-0.25 2.76,-0.75 0.59,-0.5 0.89,-1.09 0.89,-1.77 0,-0.61 -0.27,-1.09 -0.8,-1.43 -0.38,-0.24 -1.3,-0.54 -2.75,-0.92 -1.97,-0.49 -3.33,-0.92 -4.1,-1.28 -0.76,-0.37 -1.33,-0.87 -1.73,-1.51 -0.39,-0.64 -0.59,-1.35 -0.59,-2.12 0,-0.71 0.17,-1.36 0.49,-1.96 0.32,-0.6 0.76,-1.1 1.32,-1.5 0.42,-0.31 0.99,-0.57 1.71,-0.78 0.72,-0.22 1.49,-0.32 2.31,-0.32 1.25,0 2.34,0.18 3.28,0.54 0.94,0.35 1.63,0.84 2.08,1.46 0.45,0.61 0.76,1.43 0.93,2.46l-2.63 0.37c-0.12,-0.83 -0.47,-1.47 -1.04,-1.94 -0.57,-0.46 -1.38,-0.69 -2.42,-0.69 -1.23,0 -2.11,0.2 -2.64,0.61 -0.52,0.41 -0.79,0.89 -0.79,1.43 0,0.35 0.11,0.67 0.33,0.95 0.22,0.28 0.56,0.52 1.03,0.71 0.27,0.1 1.05,0.33 2.37,0.69 1.9,0.5 3.22,0.92 3.98,1.24 0.75,0.32 1.34,0.8 1.77,1.41 0.43,0.62 0.65,1.38 0.65,2.3 0,0.89 -0.26,1.73 -0.79,2.52 -0.52,0.79 -1.28,1.4 -2.26,1.84 -0.99,0.43 -2.11,0.65 -3.35,0.65 -2.06,0 -3.64,-0.43 -4.72,-1.28 -1.08,-0.86 -1.77,-2.12 -2.07,-3.8z"/>
  <path id="3" class="fil1" d="M119.45 259.12l2.78 0.37c-0.43,1.61 -1.24,2.87 -2.43,3.76 -1.18,0.9 -2.69,1.35 -4.53,1.35 -2.31,0 -4.15,-0.72 -5.51,-2.15 -1.35,-1.42 -2.03,-3.42 -2.03,-6 0,-2.66 0.68,-4.73 2.05,-6.2 1.38,-1.47 3.16,-2.2 5.34,-2.2 2.12,0 3.85,0.72 5.19,2.16 1.34,1.44 2.01,3.47 2.01,6.09 0,0.15 0,0.39 -0.01,0.71l-11.83 0c0.11,1.74 0.6,3.07 1.48,4 0.88,0.92 1.99,1.38 3.31,1.38 0.98,0 1.83,-0.26 2.52,-0.78 0.7,-0.52 1.25,-1.35 1.66,-2.49zm-8.81 -4.31l8.84 0c-0.12,-1.34 -0.46,-2.34 -1.02,-3.01 -0.85,-1.03 -1.96,-1.55 -3.32,-1.55 -1.24,0 -2.27,0.41 -3.11,1.24 -0.84,0.82 -1.3,1.93 -1.39,3.32z"/>
  <path id="4" class="fil1" d="M134.81 264.26l0 -15.88 2.41 0 0 2.26c1.17,-1.73 2.85,-2.59 5.05,-2.59 0.96,0 1.83,0.17 2.63,0.51 0.8,0.34 1.4,0.8 1.8,1.35 0.4,0.56 0.68,1.22 0.84,1.99 0.1,0.5 0.15,1.37 0.15,2.61l0 9.75 -2.7 0 0 -9.65c0,-1.09 -0.1,-1.91 -0.31,-2.45 -0.21,-0.54 -0.58,-0.98 -1.11,-1.3 -0.53,-0.32 -1.16,-0.49 -1.87,-0.49 -1.14,0 -2.12,0.36 -2.96,1.09 -0.83,0.73 -1.24,2.11 -1.24,4.14l0 8.66 -2.69 0zm1.86 -17.8c-0.01,-1.03 0.28,-1.84 0.86,-2.46 0.56,-0.6 1.29,-0.91 2.18,-0.91 0.61,0 1.46,0.26 2.52,0.79 0.58,0.29 1.05,0.43 1.4,0.43 0.32,0 0.56,-0.08 0.73,-0.25 0.17,-0.17 0.29,-0.52 0.36,-1.03l1.93 0c-0.03,1.13 -0.32,1.98 -0.86,2.54 -0.54,0.57 -1.22,0.86 -2.06,0.86 -0.62,0 -1.45,-0.28 -2.47,-0.84 -0.66,-0.36 -1.15,-0.54 -1.47,-0.54 -0.33,0 -0.61,0.12 -0.81,0.36 -0.22,0.23 -0.33,0.58 -0.32,1.05l-1.99 0z"/>
  <path id="5" class="fil1" d="M159.99 256.32c0,-2.93 0.82,-5.1 2.45,-6.51 1.36,-1.18 3.03,-1.76 4.99,-1.76 2.18,0 3.96,0.71 5.35,2.14 1.38,1.42 2.08,3.39 2.08,5.91 0,2.04 -0.31,3.64 -0.92,4.8 -0.61,1.17 -1.51,2.08 -2.68,2.73 -1.17,0.64 -2.44,0.97 -3.83,0.97 -2.22,0 -4.01,-0.71 -5.39,-2.14 -1.37,-1.42 -2.05,-3.47 -2.05,-6.14zm2.75 0.01c0,2.03 0.45,3.54 1.33,4.55 0.9,1.01 2.01,1.51 3.36,1.51 1.34,0 2.45,-0.5 3.34,-1.52 0.89,-1.01 1.33,-2.56 1.33,-4.63 0,-1.96 -0.45,-3.44 -1.34,-4.45 -0.89,-1.01 -2,-1.51 -3.33,-1.51 -1.35,0 -2.46,0.5 -3.36,1.5 -0.88,1.01 -1.33,2.52 -1.33,4.55z"/>
  <path id="6" class="fil1" d="M199.8 264.26l-5.76 -21.9 3.01 0 3.28 14.36c0.36,1.5 0.67,3 0.94,4.48 0.58,-2.34 0.91,-3.69 1.01,-4.04l4.14 -14.8 3.49 0 3.14 11.09c0.77,2.75 1.34,5.33 1.71,7.75 0.29,-1.39 0.66,-2.97 1.12,-4.76l3.42 -14.08 2.91 0 -6 21.9 -2.82 0 -4.59 -16.69c-0.39,-1.39 -0.62,-2.25 -0.71,-2.57 -0.25,1 -0.47,1.86 -0.67,2.57l-4.59 16.69 -3.03 0z"/>
  <path id="7" class="fil1" d="M244.02 259.12l2.78 0.37c-0.43,1.61 -1.24,2.87 -2.43,3.76 -1.18,0.9 -2.69,1.35 -4.53,1.35 -2.31,0 -4.15,-0.72 -5.51,-2.15 -1.35,-1.42 -2.03,-3.42 -2.03,-6 0,-2.66 0.68,-4.73 2.06,-6.2 1.37,-1.47 3.15,-2.2 5.33,-2.2 2.12,0 3.85,0.72 5.19,2.16 1.34,1.44 2.01,3.47 2.01,6.09 0,0.15 0,0.39 -0.01,0.71l-11.83 0c0.11,1.74 0.6,3.07 1.48,4 0.88,0.92 1.99,1.38 3.31,1.38 0.98,0 1.83,-0.26 2.52,-0.78 0.7,-0.52 1.25,-1.35 1.66,-2.49zm-8.81 -4.31l8.84 0c-0.12,-1.34 -0.46,-2.34 -1.02,-3.01 -0.85,-1.03 -1.96,-1.55 -3.32,-1.55 -1.24,0 -2.27,0.41 -3.11,1.24 -0.84,0.82 -1.3,1.93 -1.39,3.32z"/>
  <path id="8" class="fil1" d="M261.86 264.26l-2.51 0 0 -21.9 2.69 0 0 7.81c1.14,-1.41 2.59,-2.12 4.35,-2.12 0.97,0 1.9,0.19 2.77,0.58 0.87,0.4 1.59,0.95 2.15,1.66 0.56,0.71 1.01,1.57 1.32,2.57 0.33,1 0.48,2.08 0.48,3.22 0,2.71 -0.67,4.81 -2.01,6.29 -1.35,1.49 -2.96,2.23 -4.84,2.23 -1.87,0 -3.34,-0.78 -4.4,-2.34l0 2zm-0.03 -8.06c0,1.9 0.26,3.27 0.77,4.12 0.85,1.38 1.99,2.07 3.43,2.07 1.18,0 2.19,-0.51 3.05,-1.53 0.85,-1.02 1.28,-2.54 1.28,-4.55 0,-2.07 -0.41,-3.6 -1.23,-4.58 -0.82,-0.99 -1.81,-1.48 -2.98,-1.48 -1.17,0 -2.19,0.51 -3.04,1.53 -0.86,1.02 -1.28,2.49 -1.28,4.42z"/>
  <g id="_2156720465936">
   <path class="fil0" d="M272.22 16.28l5.14 0.01 -0.05 5.21 -5.14 -0.01 0.05 -5.21zm-2.39 6.39c0.35,1.5 2.19,1.22 3.81,1.22 1.07,0 4.03,0.14 4.88,-0.06 1.57,-0.35 1.24,-2.09 1.24,-3.73 0,-6.33 0.66,-6.21 -3.87,-6.21 -6.17,0 -6.11,-0.66 -6.11,3.8 0,0.99 -0.13,4.23 0.05,4.98z"/>
   <path class="fil0" d="M293 18.87c0.69,-0.55 1.42,-1.39 2.1,-2.07 0.45,-0.45 1.77,-1.47 0.9,-2.5 -1.33,-1.54 -2.84,1.46 -4.68,2.8 -0.98,-0.65 -3.09,-3.81 -4.39,-3.11 -1.23,1.35 -0.43,1.76 0.46,2.65 0.64,0.65 1.51,1.64 2.17,2.14 -0.3,0.67 -1.59,1.77 -2.17,2.36 -0.88,0.88 -1.7,1.3 -0.46,2.65 1.3,0.7 3.41,-2.45 4.39,-3.12 1.77,1.28 3.53,4.53 4.75,2.71 0.81,-1.22 -1.67,-3.14 -3.07,-4.51z"/>
   <path class="fil0" d="M253.28 19.13c0.27,1.54 3.77,0.96 5.25,0.96 1.6,0 4.97,0.63 4.67,-1.41 -0.22,-1.43 -3.04,-0.99 -5.31,-0.99 -1.47,0 -4.97,-0.61 -4.61,1.44z"/>
  </g>
 </g>
</svg>
