<?xml version="1.0" encoding="UTF-8"?>
<!DOCTYPE svg PUBLIC "-//W3C//DTD SVG 1.1//EN" "http://www.w3.org/Graphics/SVG/1.1/DTD/svg11.dtd">
<!-- Creator: CorelDRAW 2019 (64-Bit) -->
<svg xmlns="http://www.w3.org/2000/svg" xml:space="preserve" width="40px" height="40px" version="1.1" style="shape-rendering:geometricPrecision; text-rendering:geometricPrecision; image-rendering:optimizeQuality; fill-rule:evenodd; clip-rule:evenodd"
viewBox="0 0 6.48 6.48"
 xmlns:xlink="http://www.w3.org/1999/xlink">
 <defs>
  <style type="text/css">
   <![CDATA[
    .fil0 {fill:#76ABAE}
   ]]>
  </style>
 </defs>
 <g id="Capa_x0020_1">
  <metadata id="CorelCorpID_0Corel-Layer"/>
  <path class="fil0" d="M6.48 3.24c0,-1.79 -1.45,-3.24 -3.24,-3.24 -1.79,0 -3.24,1.45 -3.24,3.24 0,1.79 1.45,3.24 3.24,3.24 1.79,0 3.24,-1.45 3.24,-3.24zm-1.26 -1.77l-3.95 0c-0.03,0 -0.05,0.02 -0.05,0.05l0 0.61c0,0.03 0.02,0.05 0.05,0.05l3.95 0c0.03,0 0.05,-0.02 0.05,-0.05l0 -0.61c0,-0.03 -0.02,-0.05 -0.05,-0.05zm0 1.42l-3.95 0c-0.03,0 -0.05,0.02 -0.05,0.05l0 0.6c0,0.04 0.02,0.06 0.05,0.06l3.95 0c0.03,0 0.05,-0.02 0.05,-0.06l0 -0.6c0,-0.03 -0.02,-0.05 -0.05,-0.05zm0 1.41l-3.95 0c-0.03,0 -0.05,0.02 -0.05,0.06l0 0.6c0,0.03 0.02,0.05 0.05,0.05l3.95 0c0.03,0 0.05,-0.02 0.05,-0.05l0 -0.6c0,-0.04 -0.02,-0.06 -0.05,-0.06z"/>
 </g>
</svg>
