<?xml version="1.0" encoding="UTF-8"?>
<!DOCTYPE svg PUBLIC "-//W3C//DTD SVG 1.1//EN" "http://www.w3.org/Graphics/SVG/1.1/DTD/svg11.dtd">
<!-- Creator: CorelDRAW 2019 (64-Bit) -->
<svg xmlns="http://www.w3.org/2000/svg" xml:space="preserve" width="50px" height="50px" version="1.1" style="shape-rendering:geometricPrecision; text-rendering:geometricPrecision; image-rendering:optimizeQuality; fill-rule:evenodd; clip-rule:evenodd"
viewBox="0 0 2.93 2.93"
 xmlns:xlink="http://www.w3.org/1999/xlink"
 role="img">
 <defs>
  <style type="text/css">
   <![CDATA[
    .fil0 {fill:#76ABAE}
   ]]>
  </style>
 </defs>
 <g id="Capa_x0020_1">
  <metadata id="CorelCorpID_0Corel-Layer"/>
  <g id="trello-svgrepo-com.svg">
   <path class="fil0" d="M2.56 0l-2.19 0c-0.21,0 -0.37,0.16 -0.37,0.37l0 2.19c0,0.21 0.16,0.37 0.37,0.37l2.19 0c0.21,0 0.37,-0.16 0.37,-0.37l0 -2.19c0,-0.21 -0.16,-0.37 -0.37,-0.37zm-1.29 2.22c0,0.1 -0.07,0.17 -0.17,0.17l-0.54 0c-0.1,0 -0.18,-0.07 -0.18,-0.17l0 -1.66c0,-0.1 0.08,-0.18 0.18,-0.18l0.54 0c0.1,0 0.17,0.08 0.17,0.18l0 1.66 0 0zm1.28 -0.73c0,0.09 -0.08,0.17 -0.18,0.17l-0.54 0c-0.1,0 -0.18,-0.08 -0.18,-0.17l0 -0.93c0,-0.1 0.08,-0.18 0.18,-0.18l0.54 0c0.1,0 0.18,0.08 0.18,0.18l0 0.93z"/>
  </g>
 </g>
</svg>
