<?xml version="1.0" encoding="UTF-8"?>
<!DOCTYPE svg PUBLIC "-//W3C//DTD SVG 1.1//EN" "http://www.w3.org/Graphics/SVG/1.1/DTD/svg11.dtd">
<!-- Creator: CorelDRAW 2019 (64-Bit) -->
<svg xmlns="http://www.w3.org/2000/svg" xml:space="preserve" width="23.7168mm" height="23.7169mm" version="1.1" style="shape-rendering:geometricPrecision; text-rendering:geometricPrecision; image-rendering:optimizeQuality; fill-rule:evenodd; clip-rule:evenodd"
viewBox="0 0 167.35 167.35"
 xmlns:xlink="http://www.w3.org/1999/xlink"
 role="img">
 <defs>
  <style type="text/css">
   <![CDATA[
    .fil0 {fill:#EEEEEE}
   ]]>
  </style>
 </defs>
 <g id="Capa_x0020_1">
  <metadata id="CorelCorpID_0Corel-Layer"/>
  <g id="trello-svgrepo-com.svg">
   <path class="fil0" d="M146.43 0l-125.51 0c-11.55,0 -20.92,9.37 -20.92,20.92l0 125.52c0,11.55 9.36,20.92 20.92,20.92l125.51 0c11.55,0 20.92,-9.37 20.92,-20.92l0 -125.52c0,-11.55 -9.37,-20.92 -20.92,-20.92zm-73.64 126.77c0,5.54 -4.5,10.04 -10.04,10.04l-30.96 0c-5.54,0 -10.04,-4.5 -10.04,-10.04l0 -94.97c0,-5.54 4.5,-10.04 10.04,-10.04l30.96 0c5.54,0 10.04,4.5 10.04,10.04l0 94.97 0 0zm72.8 -41.84c0,5.54 -4.5,10.04 -10.04,10.04l-30.96 0c-5.54,0 -10.04,-4.5 -10.04,-10.04l0 -53.13c0,-5.54 4.5,-10.04 10.04,-10.04l30.96 0c5.54,0 10.04,4.5 10.04,10.04l0 53.13z"/>
  </g>
 </g>
</svg>
