<?xml version="1.0" encoding="UTF-8"?>
<!DOCTYPE svg PUBLIC "-//W3C//DTD SVG 1.1//EN" "http://www.w3.org/Graphics/SVG/1.1/DTD/svg11.dtd">
<!-- Creator: CorelDRAW 2019 (64-Bit) -->
<svg xmlns="http://www.w3.org/2000/svg" xml:space="preserve" width="23.5182mm" height="23.6973mm" version="1.1" style="shape-rendering:geometricPrecision; text-rendering:geometricPrecision; image-rendering:optimizeQuality; fill-rule:evenodd; clip-rule:evenodd"
viewBox="0 0 86.08 86.73"
 xmlns:xlink="http://www.w3.org/1999/xlink">
 <defs>
  <style type="text/css">
   <![CDATA[
    .fil0 {fill:#EEEEEE;fill-rule:nonzero}
   ]]>
  </style>
 </defs>
 <g id="Capa_x0020_1">
  <metadata id="CorelCorpID_0Corel-Layer"/>
  <g>
   <path class="fil0" d="M73.68 12.66c-7.98,-8.14 -18.93,-12.71 -30.33,-12.66l-0.07 0c-23.48,0 -42.8,19.32 -42.8,42.8 0,0.11 0,0.22 0,0.33 0.09,7.46 2.03,14.8 5.63,21.33l-6.09 22.27 22.71 -5.86c6.16,3.38 13.08,5.16 20.12,5.16 0.12,0 0.25,0 0.37,0 23.57,-0.13 42.89,-19.56 42.87,-43.13 0.06,-11.32 -4.41,-22.22 -12.4,-30.24l-0 -0zm-30.33 66.11c-0.06,0 -0.12,0 -0.18,0 -6.28,0 -12.46,-1.71 -17.85,-4.92l-1.41 -0.7 -13.53 3.52 3.52 -13.36 -0.94 -1.41c-3.48,-5.62 -5.33,-12.11 -5.33,-18.72 0,-19.51 16.05,-35.56 35.56,-35.56 19.51,0 35.56,16.05 35.56,35.56 0,12.28 -6.36,23.73 -16.8,30.21 -5.49,3.52 -11.89,5.39 -18.41,5.39 -0.03,0 -0.06,0 -0.08,0l-0.12 0zm20.72 -26.02l-2.58 -1.17c0,0 -3.75,-1.64 -6.09,-2.81 -0.23,0 -0.47,-0.23 -0.7,-0.23 -0.58,0.01 -1.14,0.18 -1.64,0.47 -0.5,0.29 -0.23,0.23 -3.52,3.99 -0.22,0.44 -0.68,0.71 -1.17,0.7l-0.23 -0c-0.35,-0.06 -0.68,-0.22 -0.94,-0.47l-1.17 -0.47c-2.51,-1.06 -4.82,-2.58 -6.8,-4.45 -0.47,-0.47 -1.17,-0.94 -1.64,-1.41 -1.73,-1.66 -3.24,-3.56 -4.45,-5.63l-0.23 -0.47c-0.2,-0.29 -0.36,-0.6 -0.47,-0.94 -0.01,-0.09 -0.02,-0.17 -0.02,-0.26 0,-0.32 0.09,-0.64 0.25,-0.91 0.21,-0.35 0.94,-1.17 1.64,-1.88 0.7,-0.7 0.7,-1.17 1.17,-1.64 0.35,-0.49 0.54,-1.08 0.54,-1.69 0,-0.22 -0.03,-0.44 -0.08,-0.66 -1.09,-3.02 -2.35,-6.02 -3.75,-8.91 -0.38,-0.58 -0.97,-1 -1.64,-1.17l-2.58 0c-0.47,0 -0.94,0.23 -1.41,0.23l-0.23 0.23c-0.47,0.23 -0.94,0.7 -1.41,0.94 -0.47,0.23 -0.7,0.94 -1.17,1.41 -1.64,2.07 -2.55,4.63 -2.58,7.27 0.03,1.86 0.42,3.69 1.17,5.39l0.23 0.7c2.1,4.5 5.06,8.56 8.68,11.95l0.94 0.94c0.68,0.56 1.31,1.2 1.87,1.88 4.86,4.23 10.63,7.27 16.85,8.91 0.7,0.23 1.64,0.23 2.34,0.47l2.35 0c1.22,-0.06 2.42,-0.38 3.52,-0.94 0.57,-0.26 1.12,-0.57 1.64,-0.94l0.47 -0.47c0.47,-0.47 0.94,-0.7 1.41,-1.17 0.46,-0.41 0.85,-0.88 1.17,-1.41 0.45,-1.05 0.77,-2.15 0.94,-3.28l0 -1.64c-0.21,-0.19 -0.45,-0.35 -0.7,-0.47l0.02 0zm0 0l0 0 0 0z"/>
  </g>
 </g>
</svg>
