<?xml version="1.0" encoding="UTF-8"?>
<!DOCTYPE svg PUBLIC "-//W3C//DTD SVG 1.1//EN" "http://www.w3.org/Graphics/SVG/1.1/DTD/svg11.dtd">
<!-- Creator: CorelDRAW 2019 (64-Bit) -->
<svg xmlns="http://www.w3.org/2000/svg" xml:space="preserve" width="30px" height="30px" version="1.1" style="shape-rendering:geometricPrecision; text-rendering:geometricPrecision; image-rendering:optimizeQuality; fill-rule:evenodd; clip-rule:evenodd"
viewBox="0 0 1 1"
 xmlns:xlink="http://www.w3.org/1999/xlink">
 <defs>
  <style type="text/css">
   <![CDATA[
    .fil0 {fill:#76ABAE;fill-rule:nonzero}
   ]]>
  </style>
 </defs>
 <g id="Capa_x0020_1">
  <metadata id="CorelCorpID_0Corel-Layer"/>
  <g>
   <path class="fil0" d="M0.85 0.15c-0.09,-0.1 -0.22,-0.15 -0.35,-0.15l0 0c-0.27,0 -0.49,0.22 -0.49,0.5 0,0 0,0 0,0 0,0.09 0.02,0.17 0.06,0.25l-0.07 0.25 0.26 -0.06c0.07,0.03 0.15,0.06 0.24,0.06 0,0 0,0 0,0 0.27,-0.01 0.5,-0.23 0.5,-0.5 0,-0.13 -0.06,-0.26 -0.15,-0.35l0 0zm-0.35 0.76c0,0 0,0 0,0 -0.07,0 -0.14,-0.02 -0.21,-0.06l-0.01 0 -0.16 0.04 0.04 -0.16 -0.01 -0.01c-0.04,-0.07 -0.06,-0.14 -0.06,-0.22 0,-0.23 0.18,-0.41 0.41,-0.41 0.23,0 0.41,0.18 0.41,0.41 0,0.14 -0.07,0.27 -0.19,0.35 -0.07,0.04 -0.14,0.06 -0.22,0.06 0,0 0,0 0,0l0 0zm0.24 -0.3l-0.03 -0.01c0,0 -0.04,-0.02 -0.07,-0.04 0,0 0,0 -0.01,0 0,0 -0.01,0 -0.02,0.01 0,0 0,0 -0.04,0.04 0,0.01 0,0.01 -0.01,0.01l0 0c-0.01,0 -0.01,0 -0.01,0l-0.02 -0.01c-0.03,-0.01 -0.05,-0.03 -0.08,-0.05 0,-0.01 -0.01,-0.01 -0.02,-0.02 -0.02,-0.02 -0.03,-0.04 -0.05,-0.06l0 -0.01c0,0 0,-0.01 -0.01,-0.01 0,0 0,0 0,0 0,-0.01 0.01,-0.01 0.01,-0.01 0,-0.01 0.01,-0.02 0.02,-0.02 0,-0.01 0,-0.02 0.01,-0.02 0,-0.01 0.01,-0.02 0.01,-0.02 0,-0.01 0,-0.01 0,-0.01 -0.02,-0.04 -0.03,-0.07 -0.05,-0.1 0,-0.01 -0.01,-0.02 -0.02,-0.02l-0.03 0c0,0 -0.01,0.01 -0.01,0.01l-0.01 0c0,0 -0.01,0.01 -0.01,0.01 -0.01,0 -0.01,0.01 -0.02,0.02 -0.01,0.02 -0.02,0.05 -0.03,0.08 0.01,0.02 0.01,0.04 0.02,0.06l0 0.01c0.03,0.05 0.06,0.1 0.1,0.14l0.01 0.01c0.01,0.01 0.02,0.01 0.02,0.02 0.06,0.05 0.13,0.08 0.2,0.1 0.01,0.01 0.02,0.01 0.03,0.01l0.02 0c0.02,0 0.03,-0.01 0.04,-0.01 0.01,0 0.02,-0.01 0.02,-0.01l0.01 -0.01c0,0 0.01,-0.01 0.01,-0.01 0.01,-0.01 0.01,-0.01 0.02,-0.02 0,-0.01 0.01,-0.02 0.01,-0.04l0 -0.01c0,-0.01 -0.01,-0.01 -0.01,-0.01l0 0zm0 0l0 0 0 0z"/>
  </g>
 </g>
</svg>
