<?xml version="1.0" encoding="UTF-8"?>
<!DOCTYPE svg PUBLIC "-//W3C//DTD SVG 1.1//EN" "http://www.w3.org/Graphics/SVG/1.1/DTD/svg11.dtd">
<!-- Creator: CorelDRAW 2019 (64-Bit) -->
<svg xmlns="http://www.w3.org/2000/svg" xml:space="preserve" width="50px" height="50px" version="1.1" style="shape-rendering:geometricPrecision; text-rendering:geometricPrecision; image-rendering:optimizeQuality; fill-rule:evenodd; clip-rule:evenodd"
viewBox="0 0 14.14 14.14"
 xmlns:xlink="http://www.w3.org/1999/xlink">
 <defs>
  <style type="text/css">
   <![CDATA[
    .fil0 {fill:#76ABAE}
   ]]>
  </style>
 </defs>
 <g id="Capa_x0020_1">
  <metadata id="CorelCorpID_0Corel-Layer"/>
  <path class="fil0" d="M7.07 0c-3.91,0 -7.07,3.16 -7.07,7.07 0,3.9 3.16,7.07 7.07,7.07 3.9,0 7.07,-3.17 7.07,-7.07 0,-3.91 -3.17,-7.07 -7.07,-7.07zm3.48 3.6l-0.02 -0.02c-0.47,-0.47 -1.24,-0.47 -1.72,0l-1.74 1.75 -1.75 -1.75c-0.47,-0.47 -1.24,-0.47 -1.72,0l-0.02 0.02c-0.47,0.48 -0.47,1.25 0,1.72l1.75 1.75 -1.75 1.74c-0.47,0.48 -0.47,1.25 0,1.72l0.02 0.02c0.48,0.48 1.25,0.48 1.72,0l1.75 -1.75 1.74 1.75c0.48,0.48 1.25,0.48 1.72,0l0.02 -0.02c0.48,-0.47 0.48,-1.24 0,-1.72l-1.74 -1.74 1.74 -1.75c0.48,-0.47 0.48,-1.24 0,-1.72z"/>
 </g>
</svg>
